<?xml version="1.0" encoding="UTF-8" standalone="no"?>
<!DOCTYPE svg PUBLIC "-//W3C//DTD SVG 1.1//EN"
 "http://www.w3.org/Graphics/SVG/1.1/DTD/svg11.dtd">
<!-- Generated by graphviz version 10.0.1 (0)
 -->
<!-- Pages: 1 -->
<svg width="676pt" height="764pt"
 viewBox="0.00 0.00 675.61 764.00" xmlns="http://www.w3.org/2000/svg" xmlns:xlink="http://www.w3.org/1999/xlink">
<g id="graph0" class="graph" transform="scale(1 1) rotate(0) translate(4 760)">
<polygon fill="white" stroke="none" points="-4,4 -4,-760 671.61,-760 671.61,4 -4,4"/>
<!-- 8 -->
<g id="node1" class="node">
<title>8</title>
<ellipse fill="none" stroke="black" cx="72" cy="-378" rx="27" ry="18"/>
<text text-anchor="middle" x="72" y="-373.32" font-family="Times,serif" font-size="14.00">8</text>
</g>
<!-- 19 -->
<g id="node2" class="node">
<title>19</title>
<ellipse fill="none" stroke="black" cx="27" cy="-18" rx="27" ry="18"/>
<text text-anchor="middle" x="27" y="-13.32" font-family="Times,serif" font-size="14.00">19</text>
</g>
<!-- 8&#45;&gt;19 -->
<g id="edge1" class="edge">
<title>8&#45;&gt;19</title>
<path fill="none" stroke="black" d="M66.86,-360.13C59.29,-333.72 46,-280.86 46,-235 46,-235 46,-235 46,-161 46,-121.17 38.57,-75.61 33,-47.07"/>
<polygon fill="black" stroke="black" points="36.46,-46.54 31.05,-37.43 29.6,-47.93 36.46,-46.54"/>
</g>
<!-- 9 -->
<g id="node3" class="node">
<title>9</title>
<ellipse fill="none" stroke="black" cx="131" cy="-522" rx="27" ry="18"/>
<text text-anchor="middle" x="131" y="-517.33" font-family="Times,serif" font-size="14.00">9</text>
</g>
<!-- 9&#45;&gt;19 -->
<g id="edge3" class="edge">
<title>9&#45;&gt;19</title>
<path fill="none" stroke="black" d="M128.76,-503.57C124.91,-473.99 116.6,-412.09 108,-360 86.79,-231.51 95.99,-195.28 54,-72 50.91,-62.93 46.51,-53.47 42.16,-45.09"/>
<polygon fill="black" stroke="black" points="45.34,-43.62 37.5,-36.51 39.19,-46.96 45.34,-43.62"/>
</g>
<!-- 11 -->
<g id="node4" class="node">
<title>11</title>
<ellipse fill="none" stroke="black" cx="188" cy="-450" rx="27" ry="18"/>
<text text-anchor="middle" x="188" y="-445.32" font-family="Times,serif" font-size="14.00">11</text>
</g>
<!-- 9&#45;&gt;11 -->
<g id="edge2" class="edge">
<title>9&#45;&gt;11</title>
<path fill="none" stroke="black" d="M143.37,-505.81C150.69,-496.82 160.13,-485.23 168.43,-475.03"/>
<polygon fill="black" stroke="black" points="171.1,-477.3 174.7,-467.33 165.67,-472.88 171.1,-477.3"/>
</g>
<!-- 10 -->
<g id="node5" class="node">
<title>10</title>
<ellipse fill="none" stroke="black" cx="294" cy="-306" rx="27" ry="18"/>
<text text-anchor="middle" x="294" y="-301.32" font-family="Times,serif" font-size="14.00">10</text>
</g>
<!-- 9&#45;&gt;10 -->
<g id="edge4" class="edge">
<title>9&#45;&gt;10</title>
<path fill="none" stroke="black" d="M154.42,-512.61C175.11,-504.15 204.88,-489.3 224,-468 259.03,-428.97 278.59,-369.68 287.65,-335"/>
<polygon fill="black" stroke="black" points="290.95,-336.26 289.97,-325.71 284.15,-334.57 290.95,-336.26"/>
</g>
<!-- 12 -->
<g id="node20" class="node">
<title>12</title>
<ellipse fill="none" stroke="black" cx="208" cy="-378" rx="27" ry="18"/>
<text text-anchor="middle" x="208" y="-373.32" font-family="Times,serif" font-size="14.00">12</text>
</g>
<!-- 11&#45;&gt;12 -->
<g id="edge32" class="edge">
<title>11&#45;&gt;12</title>
<path fill="none" stroke="black" d="M192.84,-432.05C195,-424.49 197.61,-415.37 200.04,-406.85"/>
<polygon fill="black" stroke="black" points="203.41,-407.82 202.79,-397.24 196.67,-405.9 203.41,-407.82"/>
</g>
<!-- 10&#45;&gt;19 -->
<g id="edge18" class="edge">
<title>10&#45;&gt;19</title>
<path fill="none" stroke="black" d="M310.87,-291.56C356.59,-253.57 475.39,-143.55 413,-72 368.16,-20.58 154.3,-17.29 65.64,-18.2"/>
<polygon fill="black" stroke="black" points="65.71,-14.7 55.75,-18.33 65.8,-21.7 65.71,-14.7"/>
</g>
<!-- 16 -->
<g id="node6" class="node">
<title>16</title>
<ellipse fill="none" stroke="black" cx="265" cy="-162" rx="27" ry="18"/>
<text text-anchor="middle" x="265" y="-157.32" font-family="Times,serif" font-size="14.00">16</text>
</g>
<!-- 16&#45;&gt;19 -->
<g id="edge5" class="edge">
<title>16&#45;&gt;19</title>
<path fill="none" stroke="black" d="M259.68,-143.93C252.52,-123.77 237.85,-90.64 214,-72 170.44,-37.96 106.05,-25.78 65.33,-21.43"/>
<polygon fill="black" stroke="black" points="65.8,-17.96 55.51,-20.49 65.13,-24.92 65.8,-17.96"/>
</g>
<!-- 1 -->
<g id="node7" class="node">
<title>1</title>
<ellipse fill="none" stroke="black" cx="35" cy="-666" rx="27" ry="18"/>
<text text-anchor="middle" x="35" y="-661.33" font-family="Times,serif" font-size="14.00">1</text>
</g>
<!-- 1&#45;&gt;19 -->
<g id="edge7" class="edge">
<title>1&#45;&gt;19</title>
<path fill="none" stroke="black" d="M32.79,-647.89C26.34,-596.44 8,-438.51 8,-307 8,-307 8,-307 8,-161 8,-121.17 15.43,-75.61 21,-47.07"/>
<polygon fill="black" stroke="black" points="24.4,-47.93 22.95,-37.43 17.54,-46.54 24.4,-47.93"/>
</g>
<!-- 2 -->
<g id="node8" class="node">
<title>2</title>
<ellipse fill="none" stroke="black" cx="97" cy="-594" rx="27" ry="18"/>
<text text-anchor="middle" x="97" y="-589.33" font-family="Times,serif" font-size="14.00">2</text>
</g>
<!-- 1&#45;&gt;2 -->
<g id="edge6" class="edge">
<title>1&#45;&gt;2</title>
<path fill="none" stroke="black" d="M48.15,-650.15C56.37,-640.87 67.13,-628.73 76.46,-618.19"/>
<polygon fill="black" stroke="black" points="78.86,-620.76 82.87,-610.96 73.62,-616.12 78.86,-620.76"/>
</g>
<!-- 2&#45;&gt;8 -->
<g id="edge22" class="edge">
<title>2&#45;&gt;8</title>
<path fill="none" stroke="black" d="M95,-575.85C90.71,-539.14 80.61,-452.66 75.33,-407.53"/>
<polygon fill="black" stroke="black" points="78.83,-407.26 74.19,-397.74 71.87,-408.07 78.83,-407.26"/>
</g>
<!-- 2&#45;&gt;9 -->
<g id="edge23" class="edge">
<title>2&#45;&gt;9</title>
<path fill="none" stroke="black" d="M105.06,-576.41C108.95,-568.39 113.72,-558.57 118.11,-549.54"/>
<polygon fill="black" stroke="black" points="121.12,-551.36 122.34,-540.83 114.82,-548.3 121.12,-551.36"/>
</g>
<!-- 3 -->
<g id="node9" class="node">
<title>3</title>
<ellipse fill="none" stroke="black" cx="389" cy="-306" rx="27" ry="18"/>
<text text-anchor="middle" x="389" y="-301.32" font-family="Times,serif" font-size="14.00">3</text>
</g>
<!-- 2&#45;&gt;3 -->
<g id="edge24" class="edge">
<title>2&#45;&gt;3</title>
<path fill="none" stroke="black" d="M114.82,-580.06C129.13,-569.54 149.64,-554.16 167,-540 204.58,-509.34 214.79,-502.38 249,-468 294.9,-421.88 343.72,-363.25 369.85,-330.99"/>
<polygon fill="black" stroke="black" points="372.4,-333.41 375.95,-323.42 366.95,-329.01 372.4,-333.41"/>
</g>
<!-- 6 -->
<g id="node10" class="node">
<title>6</title>
<ellipse fill="none" stroke="black" cx="541" cy="-90" rx="27" ry="18"/>
<text text-anchor="middle" x="541" y="-85.33" font-family="Times,serif" font-size="14.00">6</text>
</g>
<!-- 2&#45;&gt;6 -->
<g id="edge20" class="edge">
<title>2&#45;&gt;6</title>
<path fill="none" stroke="black" d="M119.75,-583.77C141.75,-574.33 175.55,-558.47 202,-540 244.77,-510.13 407,-348.83 425,-324 474.27,-256.01 513.13,-163.96 530.74,-118.6"/>
<polygon fill="black" stroke="black" points="534,-119.87 534.3,-109.28 527.46,-117.37 534,-119.87"/>
</g>
<!-- 5 -->
<g id="node12" class="node">
<title>5</title>
<ellipse fill="none" stroke="black" cx="416" cy="-450" rx="27" ry="18"/>
<text text-anchor="middle" x="416" y="-445.32" font-family="Times,serif" font-size="14.00">5</text>
</g>
<!-- 2&#45;&gt;5 -->
<g id="edge19" class="edge">
<title>2&#45;&gt;5</title>
<path fill="none" stroke="black" d="M122.87,-588.13C159.29,-580.71 227.25,-564.76 281,-540 321.88,-521.17 364.5,-491.02 390.65,-471.12"/>
<polygon fill="black" stroke="black" points="392.53,-474.09 398.31,-465.21 388.25,-468.55 392.53,-474.09"/>
</g>
<!-- 7 -->
<g id="node15" class="node">
<title>7</title>
<ellipse fill="none" stroke="black" cx="484" cy="-378" rx="27" ry="18"/>
<text text-anchor="middle" x="484" y="-373.32" font-family="Times,serif" font-size="14.00">7</text>
</g>
<!-- 2&#45;&gt;7 -->
<g id="edge21" class="edge">
<title>2&#45;&gt;7</title>
<path fill="none" stroke="black" d="M123.37,-589.39C166.61,-582.92 254.77,-567.41 325,-540 328.78,-538.53 449.39,-471.1 452,-468 466.56,-450.72 474.72,-426.29 479.14,-407.4"/>
<polygon fill="black" stroke="black" points="482.56,-408.17 481.18,-397.67 475.7,-406.74 482.56,-408.17"/>
</g>
<!-- 4 -->
<g id="node17" class="node">
<title>4</title>
<ellipse fill="none" stroke="black" cx="426" cy="-522" rx="27" ry="18"/>
<text text-anchor="middle" x="426" y="-517.33" font-family="Times,serif" font-size="14.00">4</text>
</g>
<!-- 2&#45;&gt;4 -->
<g id="edge25" class="edge">
<title>2&#45;&gt;4</title>
<path fill="none" stroke="black" d="M123.59,-589.64C174.29,-582.88 288.02,-566.02 381,-540 384.82,-538.93 388.76,-537.68 392.66,-536.34"/>
<polygon fill="black" stroke="black" points="393.75,-539.67 401.95,-532.96 391.35,-533.09 393.75,-539.67"/>
</g>
<!-- 3&#45;&gt;19 -->
<g id="edge8" class="edge">
<title>3&#45;&gt;19</title>
<path fill="none" stroke="black" d="M399.99,-289.11C427.11,-247.8 491.06,-135.81 435,-72 410.76,-44.41 162.12,-26.94 65.3,-21.14"/>
<polygon fill="black" stroke="black" points="65.7,-17.66 55.51,-20.56 65.29,-24.65 65.7,-17.66"/>
</g>
<!-- 6&#45;&gt;19 -->
<g id="edge9" class="edge">
<title>6&#45;&gt;19</title>
<path fill="none" stroke="black" d="M519.69,-78.83C513.46,-76.23 506.57,-73.69 500,-72 342.48,-31.39 147.53,-21.9 65.85,-19.68"/>
<polygon fill="black" stroke="black" points="66.01,-16.18 55.93,-19.43 65.84,-23.18 66.01,-16.18"/>
</g>
<!-- 0 -->
<g id="node11" class="node">
<title>0</title>
<ellipse fill="none" stroke="black" cx="35" cy="-738" rx="27" ry="18"/>
<text text-anchor="middle" x="35" y="-733.33" font-family="Times,serif" font-size="14.00">0</text>
</g>
<!-- 0&#45;&gt;1 -->
<g id="edge10" class="edge">
<title>0&#45;&gt;1</title>
<path fill="none" stroke="black" d="M35,-719.7C35,-712.41 35,-703.73 35,-695.54"/>
<polygon fill="black" stroke="black" points="38.5,-695.62 35,-685.62 31.5,-695.62 38.5,-695.62"/>
</g>
<!-- 5&#45;&gt;19 -->
<g id="edge11" class="edge">
<title>5&#45;&gt;19</title>
<path fill="none" stroke="black" d="M421.28,-431.97C427.1,-413.84 437.09,-384.44 448,-360 476.58,-295.96 624.15,-123.91 577,-72 542.67,-34.2 184.92,-22.61 65.54,-19.79"/>
<polygon fill="black" stroke="black" points="65.69,-16.29 55.62,-19.56 65.53,-23.29 65.69,-16.29"/>
</g>
<!-- 15 -->
<g id="node13" class="node">
<title>15</title>
<ellipse fill="none" stroke="black" cx="211" cy="-234" rx="27" ry="18"/>
<text text-anchor="middle" x="211" y="-229.32" font-family="Times,serif" font-size="14.00">15</text>
</g>
<!-- 15&#45;&gt;19 -->
<g id="edge13" class="edge">
<title>15&#45;&gt;19</title>
<path fill="none" stroke="black" d="M209.04,-215.61C204.52,-183.28 190.53,-113.44 151,-72 127.74,-47.62 91.44,-33.9 64.11,-26.56"/>
<polygon fill="black" stroke="black" points="65.03,-23.18 54.48,-24.16 63.34,-29.97 65.03,-23.18"/>
</g>
<!-- 15&#45;&gt;16 -->
<g id="edge14" class="edge">
<title>15&#45;&gt;16</title>
<path fill="none" stroke="black" d="M222.98,-217.46C229.77,-208.67 238.4,-197.48 246.08,-187.53"/>
<polygon fill="black" stroke="black" points="248.79,-189.75 252.12,-179.69 243.25,-185.47 248.79,-189.75"/>
</g>
<!-- 17 -->
<g id="node14" class="node">
<title>17</title>
<ellipse fill="none" stroke="black" cx="346" cy="-162" rx="27" ry="18"/>
<text text-anchor="middle" x="346" y="-157.32" font-family="Times,serif" font-size="14.00">17</text>
</g>
<!-- 15&#45;&gt;17 -->
<g id="edge12" class="edge">
<title>15&#45;&gt;17</title>
<path fill="none" stroke="black" d="M231.8,-222.22C254.16,-210.62 289.93,-192.07 315.48,-178.82"/>
<polygon fill="black" stroke="black" points="316.79,-182.09 324.06,-174.38 313.57,-175.87 316.79,-182.09"/>
</g>
<!-- 17&#45;&gt;19 -->
<g id="edge17" class="edge">
<title>17&#45;&gt;19</title>
<path fill="none" stroke="black" d="M332.78,-145.96C314.41,-126.02 279.2,-91.12 242,-72 184.4,-42.4 109.52,-28.8 65.03,-22.97"/>
<polygon fill="black" stroke="black" points="65.72,-19.53 55.37,-21.77 64.86,-26.48 65.72,-19.53"/>
</g>
<!-- 18 -->
<g id="node16" class="node">
<title>18</title>
<ellipse fill="none" stroke="black" cx="355" cy="-90" rx="27" ry="18"/>
<text text-anchor="middle" x="355" y="-85.33" font-family="Times,serif" font-size="14.00">18</text>
</g>
<!-- 17&#45;&gt;18 -->
<g id="edge16" class="edge">
<title>17&#45;&gt;18</title>
<path fill="none" stroke="black" d="M348.22,-143.7C349.17,-136.32 350.3,-127.52 351.37,-119.25"/>
<polygon fill="black" stroke="black" points="354.8,-119.97 352.61,-109.61 347.86,-119.08 354.8,-119.97"/>
</g>
<!-- 7&#45;&gt;19 -->
<g id="edge15" class="edge">
<title>7&#45;&gt;19</title>
<path fill="none" stroke="black" d="M492.06,-360.67C506.78,-331.2 539.39,-267.43 571,-216 581.2,-199.41 588.42,-197.95 596,-180 614.83,-135.41 642.64,-107.74 610,-72 573.28,-31.79 189.37,-21.76 65.38,-19.56"/>
<polygon fill="black" stroke="black" points="65.79,-16.07 55.73,-19.4 65.67,-23.06 65.79,-16.07"/>
</g>
<!-- 18&#45;&gt;19 -->
<g id="edge33" class="edge">
<title>18&#45;&gt;19</title>
<path fill="none" stroke="black" d="M333.18,-78.96C327.07,-76.42 320.35,-73.88 314,-72 226.64,-46.14 120.42,-30.46 64.92,-23.42"/>
<polygon fill="black" stroke="black" points="65.41,-19.95 55.05,-22.19 64.55,-26.9 65.41,-19.95"/>
</g>
<!-- 4&#45;&gt;19 -->
<g id="edge26" class="edge">
<title>4&#45;&gt;19</title>
<path fill="none" stroke="black" d="M442.23,-507.17C509.85,-447.97 759.79,-212.59 631,-72 592.81,-30.32 193.4,-21.27 65.89,-19.44"/>
<polygon fill="black" stroke="black" points="65.98,-15.94 55.94,-19.3 65.89,-22.94 65.98,-15.94"/>
</g>
<!-- 13 -->
<g id="node18" class="node">
<title>13</title>
<ellipse fill="none" stroke="black" cx="175" cy="-306" rx="27" ry="18"/>
<text text-anchor="middle" x="175" y="-301.32" font-family="Times,serif" font-size="14.00">13</text>
</g>
<!-- 13&#45;&gt;19 -->
<g id="edge28" class="edge">
<title>13&#45;&gt;19</title>
<path fill="none" stroke="black" d="M174.52,-287.65C172.56,-246.27 162.58,-140.13 112,-72 98.91,-54.38 78.07,-41.25 60.29,-32.46"/>
<polygon fill="black" stroke="black" points="62.18,-29.48 51.64,-28.43 59.23,-35.83 62.18,-29.48"/>
</g>
<!-- 13&#45;&gt;15 -->
<g id="edge27" class="edge">
<title>13&#45;&gt;15</title>
<path fill="none" stroke="black" d="M183.35,-288.76C187.58,-280.55 192.81,-270.37 197.58,-261.09"/>
<polygon fill="black" stroke="black" points="200.54,-262.99 202,-252.49 194.32,-259.79 200.54,-262.99"/>
</g>
<!-- 14 -->
<g id="node19" class="node">
<title>14</title>
<ellipse fill="none" stroke="black" cx="312" cy="-234" rx="27" ry="18"/>
<text text-anchor="middle" x="312" y="-229.32" font-family="Times,serif" font-size="14.00">14</text>
</g>
<!-- 13&#45;&gt;14 -->
<g id="edge29" class="edge">
<title>13&#45;&gt;14</title>
<path fill="none" stroke="black" d="M196.11,-294.22C218.8,-282.62 255.1,-264.07 281.03,-250.82"/>
<polygon fill="black" stroke="black" points="282.43,-254.04 289.75,-246.37 279.25,-247.8 282.43,-254.04"/>
</g>
<!-- 14&#45;&gt;19 -->
<g id="edge31" class="edge">
<title>14&#45;&gt;19</title>
<path fill="none" stroke="black" d="M333.5,-222.73C349.67,-213.8 370.87,-199.27 382,-180 406.08,-138.29 422.51,-108.43 391,-72 349.25,-23.73 150.78,-18.53 65.78,-18.57"/>
<polygon fill="black" stroke="black" points="65.84,-15.06 55.85,-18.6 65.86,-22.06 65.84,-15.06"/>
</g>
<!-- 12&#45;&gt;13 -->
<g id="edge30" class="edge">
<title>12&#45;&gt;13</title>
<path fill="none" stroke="black" d="M200.18,-360.41C196.44,-352.48 191.87,-342.78 187.65,-333.84"/>
<polygon fill="black" stroke="black" points="190.84,-332.39 183.41,-324.84 184.51,-335.38 190.84,-332.39"/>
</g>
</g>
</svg>
