<?xml version="1.0" encoding="UTF-8" standalone="no"?>
<!DOCTYPE svg PUBLIC "-//W3C//DTD SVG 1.1//EN"
 "http://www.w3.org/Graphics/SVG/1.1/DTD/svg11.dtd">
<!-- Generated by graphviz version 10.0.1 (0)
 -->
<!-- Pages: 1 -->
<svg width="809pt" height="980pt"
 viewBox="0.00 0.00 809.00 980.00" xmlns="http://www.w3.org/2000/svg" xmlns:xlink="http://www.w3.org/1999/xlink">
<g id="graph0" class="graph" transform="scale(1 1) rotate(0) translate(4 976)">
<polygon fill="white" stroke="none" points="-4,4 -4,-976 805,-976 805,4 -4,4"/>
<!-- 19 -->
<g id="node1" class="node">
<title>19</title>
<ellipse fill="none" stroke="black" cx="35" cy="-18" rx="27" ry="18"/>
<text text-anchor="middle" x="35" y="-13.32" font-family="Times,serif" font-size="14.00">19</text>
</g>
<!-- 5 -->
<g id="node2" class="node">
<title>5</title>
<ellipse fill="none" stroke="black" cx="110" cy="-666" rx="27" ry="18"/>
<text text-anchor="middle" x="110" y="-661.33" font-family="Times,serif" font-size="14.00">5</text>
</g>
<!-- 5&#45;&gt;19 -->
<g id="edge1" class="edge">
<title>5&#45;&gt;19</title>
<path fill="none" stroke="black" d="M111.72,-647.93C118.37,-575.83 138.73,-289.94 68,-72 64.78,-62.07 59.31,-52.11 53.74,-43.55"/>
<polygon fill="black" stroke="black" points="56.72,-41.7 48.15,-35.47 50.96,-45.68 56.72,-41.7"/>
</g>
<!-- 6 -->
<g id="node3" class="node">
<title>6</title>
<ellipse fill="none" stroke="black" cx="170" cy="-522" rx="27" ry="18"/>
<text text-anchor="middle" x="170" y="-517.33" font-family="Times,serif" font-size="14.00">6</text>
</g>
<!-- 6&#45;&gt;19 -->
<g id="edge2" class="edge">
<title>6&#45;&gt;19</title>
<path fill="none" stroke="black" d="M167.44,-503.85C162.25,-467.6 151,-380.48 151,-307 151,-307 151,-307 151,-161 151,-120.03 151.98,-104.47 127,-72 112.4,-53.02 88.91,-39.65 69.33,-31.09"/>
<polygon fill="black" stroke="black" points="70.91,-27.95 60.33,-27.4 68.26,-34.43 70.91,-27.95"/>
</g>
<!-- 4 -->
<g id="node4" class="node">
<title>4</title>
<ellipse fill="none" stroke="black" cx="206" cy="-378" rx="27" ry="18"/>
<text text-anchor="middle" x="206" y="-373.32" font-family="Times,serif" font-size="14.00">4</text>
</g>
<!-- 4&#45;&gt;19 -->
<g id="edge3" class="edge">
<title>4&#45;&gt;19</title>
<path fill="none" stroke="black" d="M209.1,-359.95C217.19,-309.83 233.83,-160.94 165,-72 142.88,-43.41 102.75,-30.16 72.91,-24.07"/>
<polygon fill="black" stroke="black" points="73.59,-20.64 63.13,-22.28 72.33,-27.52 73.59,-20.64"/>
</g>
<!-- 14 -->
<g id="node5" class="node">
<title>14</title>
<ellipse fill="none" stroke="black" cx="610" cy="-378" rx="27" ry="18"/>
<text text-anchor="middle" x="610" y="-373.32" font-family="Times,serif" font-size="14.00">14</text>
</g>
<!-- 14&#45;&gt;19 -->
<g id="edge5" class="edge">
<title>14&#45;&gt;19</title>
<path fill="none" stroke="black" d="M603.8,-360.08C581.2,-298.75 503.21,-90.8 478,-72 414.51,-24.66 169.76,-19.13 73.86,-18.82"/>
<polygon fill="black" stroke="black" points="73.91,-15.32 63.91,-18.81 73.91,-22.32 73.91,-15.32"/>
</g>
<!-- 15 -->
<g id="node6" class="node">
<title>15</title>
<ellipse fill="none" stroke="black" cx="629" cy="-306" rx="27" ry="18"/>
<text text-anchor="middle" x="629" y="-301.32" font-family="Times,serif" font-size="14.00">15</text>
</g>
<!-- 14&#45;&gt;15 -->
<g id="edge4" class="edge">
<title>14&#45;&gt;15</title>
<path fill="none" stroke="black" d="M614.6,-360.05C616.65,-352.49 619.13,-343.37 621.44,-334.85"/>
<polygon fill="black" stroke="black" points="624.8,-335.82 624.05,-325.25 618.05,-333.98 624.8,-335.82"/>
</g>
<!-- 15&#45;&gt;19 -->
<g id="edge30" class="edge">
<title>15&#45;&gt;19</title>
<path fill="none" stroke="black" d="M617.52,-289.21C610.3,-278.91 601.04,-264.99 594,-252 552.49,-175.33 586.15,-123.78 516,-72 446.1,-20.41 175.22,-17.59 73.71,-18.4"/>
<polygon fill="black" stroke="black" points="73.95,-14.9 63.98,-18.5 74.02,-21.9 73.95,-14.9"/>
</g>
<!-- 16 -->
<g id="node8" class="node">
<title>16</title>
<ellipse fill="none" stroke="black" cx="630" cy="-234" rx="27" ry="18"/>
<text text-anchor="middle" x="630" y="-229.32" font-family="Times,serif" font-size="14.00">16</text>
</g>
<!-- 15&#45;&gt;16 -->
<g id="edge31" class="edge">
<title>15&#45;&gt;16</title>
<path fill="none" stroke="black" d="M629.25,-287.7C629.35,-280.41 629.48,-271.73 629.59,-263.54"/>
<polygon fill="black" stroke="black" points="633.09,-263.67 629.73,-253.62 626.09,-263.57 633.09,-263.67"/>
</g>
<!-- 3 -->
<g id="node7" class="node">
<title>3</title>
<ellipse fill="none" stroke="black" cx="256" cy="-306" rx="27" ry="18"/>
<text text-anchor="middle" x="256" y="-301.32" font-family="Times,serif" font-size="14.00">3</text>
</g>
<!-- 3&#45;&gt;19 -->
<g id="edge6" class="edge">
<title>3&#45;&gt;19</title>
<path fill="none" stroke="black" d="M259.81,-287.86C268.14,-245.56 283.13,-135.01 229,-72 208.79,-48.47 123.2,-32.08 72.7,-24.24"/>
<polygon fill="black" stroke="black" points="73.5,-20.82 63.09,-22.79 72.45,-27.74 73.5,-20.82"/>
</g>
<!-- 16&#45;&gt;19 -->
<g id="edge8" class="edge">
<title>16&#45;&gt;19</title>
<path fill="none" stroke="black" d="M626.47,-215.89C618.35,-178.28 597.25,-90.31 574,-72 534.81,-41.14 190.21,-25.02 73.47,-20.41"/>
<polygon fill="black" stroke="black" points="73.92,-16.93 63.79,-20.04 73.64,-23.92 73.92,-16.93"/>
</g>
<!-- 17 -->
<g id="node9" class="node">
<title>17</title>
<ellipse fill="none" stroke="black" cx="657" cy="-162" rx="27" ry="18"/>
<text text-anchor="middle" x="657" y="-157.32" font-family="Times,serif" font-size="14.00">17</text>
</g>
<!-- 16&#45;&gt;17 -->
<g id="edge7" class="edge">
<title>16&#45;&gt;17</title>
<path fill="none" stroke="black" d="M636.54,-216.05C639.52,-208.32 643.13,-198.96 646.48,-190.27"/>
<polygon fill="black" stroke="black" points="649.65,-191.79 649.98,-181.2 643.12,-189.27 649.65,-191.79"/>
</g>
<!-- 17&#45;&gt;19 -->
<g id="edge9" class="edge">
<title>17&#45;&gt;19</title>
<path fill="none" stroke="black" d="M654.1,-143.62C649.64,-122.83 638.94,-88.75 615,-72 570.7,-41.01 195.59,-24.81 73.34,-20.32"/>
<polygon fill="black" stroke="black" points="73.63,-16.82 63.51,-19.96 73.37,-23.82 73.63,-16.82"/>
</g>
<!-- 18 -->
<g id="node10" class="node">
<title>18</title>
<ellipse fill="none" stroke="black" cx="703" cy="-90" rx="27" ry="18"/>
<text text-anchor="middle" x="703" y="-85.33" font-family="Times,serif" font-size="14.00">18</text>
</g>
<!-- 17&#45;&gt;18 -->
<g id="edge10" class="edge">
<title>17&#45;&gt;18</title>
<path fill="none" stroke="black" d="M667.44,-145.12C673.03,-136.61 680.04,-125.94 686.36,-116.32"/>
<polygon fill="black" stroke="black" points="689.21,-118.37 691.77,-108.09 683.36,-114.52 689.21,-118.37"/>
</g>
<!-- 18&#45;&gt;19 -->
<g id="edge24" class="edge">
<title>18&#45;&gt;19</title>
<path fill="none" stroke="black" d="M681.72,-78.72C675.49,-76.11 668.59,-73.6 662,-72 549.25,-44.56 191.81,-26.16 73.47,-20.7"/>
<polygon fill="black" stroke="black" points="73.8,-17.21 63.65,-20.25 73.48,-24.2 73.8,-17.21"/>
</g>
<!-- 11 -->
<g id="node11" class="node">
<title>11</title>
<ellipse fill="none" stroke="black" cx="449" cy="-522" rx="27" ry="18"/>
<text text-anchor="middle" x="449" y="-517.33" font-family="Times,serif" font-size="14.00">11</text>
</g>
<!-- 11&#45;&gt;19 -->
<g id="edge12" class="edge">
<title>11&#45;&gt;19</title>
<path fill="none" stroke="black" d="M435.37,-506.08C420.63,-488.05 400.9,-457 414,-432 427.05,-407.1 452.27,-420.53 466,-396 501.85,-331.96 457.91,-119.54 402,-72 353.1,-30.42 157.71,-21.46 73.71,-19.53"/>
<polygon fill="black" stroke="black" points="73.97,-16.03 63.9,-19.33 73.83,-23.03 73.97,-16.03"/>
</g>
<!-- 13 -->
<g id="node12" class="node">
<title>13</title>
<ellipse fill="none" stroke="black" cx="450" cy="-450" rx="27" ry="18"/>
<text text-anchor="middle" x="450" y="-445.32" font-family="Times,serif" font-size="14.00">13</text>
</g>
<!-- 11&#45;&gt;13 -->
<g id="edge11" class="edge">
<title>11&#45;&gt;13</title>
<path fill="none" stroke="black" d="M449.25,-503.7C449.35,-496.41 449.48,-487.73 449.59,-479.54"/>
<polygon fill="black" stroke="black" points="453.09,-479.67 449.73,-469.62 446.09,-479.57 453.09,-479.67"/>
</g>
<!-- 12 -->
<g id="node13" class="node">
<title>12</title>
<ellipse fill="none" stroke="black" cx="730" cy="-162" rx="27" ry="18"/>
<text text-anchor="middle" x="730" y="-157.32" font-family="Times,serif" font-size="14.00">12</text>
</g>
<!-- 11&#45;&gt;12 -->
<g id="edge13" class="edge">
<title>11&#45;&gt;12</title>
<path fill="none" stroke="black" d="M465.31,-507.61C488.1,-489.24 531.17,-455.81 571,-432 602.73,-413.03 621.22,-423.44 646,-396 699.96,-336.27 719.92,-239.3 726.75,-191.49"/>
<polygon fill="black" stroke="black" points="730.21,-192.06 728.05,-181.69 723.27,-191.14 730.21,-192.06"/>
</g>
<!-- 13&#45;&gt;19 -->
<g id="edge14" class="edge">
<title>13&#45;&gt;19</title>
<path fill="none" stroke="black" d="M470.3,-437.81C484.62,-428.65 502.68,-414.25 511,-396 541.57,-328.93 496.67,-119.13 440,-72 384.82,-26.11 163.71,-19.65 73.56,-18.96"/>
<polygon fill="black" stroke="black" points="73.76,-15.46 63.75,-18.91 73.73,-22.46 73.76,-15.46"/>
</g>
<!-- 13&#45;&gt;14 -->
<g id="edge15" class="edge">
<title>13&#45;&gt;14</title>
<path fill="none" stroke="black" d="M472.25,-439.27C499.51,-427.34 545.95,-407.02 577.29,-393.31"/>
<polygon fill="black" stroke="black" points="578.54,-396.58 586.3,-389.37 575.73,-390.17 578.54,-396.58"/>
</g>
<!-- 12&#45;&gt;19 -->
<g id="edge29" class="edge">
<title>12&#45;&gt;19</title>
<path fill="none" stroke="black" d="M738.29,-144.52C746.98,-124.64 757.06,-91.47 739,-72 693.54,-22.99 214.38,-19.02 73.65,-18.92"/>
<polygon fill="black" stroke="black" points="73.74,-15.42 63.74,-18.92 73.74,-22.42 73.74,-15.42"/>
</g>
<!-- 10 -->
<g id="node14" class="node">
<title>10</title>
<ellipse fill="none" stroke="black" cx="387" cy="-594" rx="27" ry="18"/>
<text text-anchor="middle" x="387" y="-589.33" font-family="Times,serif" font-size="14.00">10</text>
</g>
<!-- 10&#45;&gt;19 -->
<g id="edge17" class="edge">
<title>10&#45;&gt;19</title>
<path fill="none" stroke="black" d="M387.46,-575.82C388.58,-546.11 392.37,-483.35 405,-432 409.1,-415.33 415.83,-412.87 419,-396 421.95,-380.27 420.53,-375.93 419,-360 406.5,-230.2 456.66,-162.72 363,-72 322.31,-32.59 150.97,-22.45 73.42,-19.87"/>
<polygon fill="black" stroke="black" points="73.86,-16.38 63.76,-19.58 73.65,-23.38 73.86,-16.38"/>
</g>
<!-- 10&#45;&gt;11 -->
<g id="edge16" class="edge">
<title>10&#45;&gt;11</title>
<path fill="none" stroke="black" d="M400.15,-578.15C408.37,-568.87 419.13,-556.73 428.46,-546.19"/>
<polygon fill="black" stroke="black" points="430.86,-548.76 434.87,-538.96 425.62,-544.12 430.86,-548.76"/>
</g>
<!-- 2 -->
<g id="node15" class="node">
<title>2</title>
<ellipse fill="none" stroke="black" cx="76" cy="-810" rx="27" ry="18"/>
<text text-anchor="middle" x="76" y="-805.33" font-family="Times,serif" font-size="14.00">2</text>
</g>
<!-- 2&#45;&gt;19 -->
<g id="edge21" class="edge">
<title>2&#45;&gt;19</title>
<path fill="none" stroke="black" d="M73.73,-791.63C68.11,-747.07 54,-625.09 54,-523 54,-523 54,-523 54,-161 54,-121.17 46.57,-75.61 41,-47.07"/>
<polygon fill="black" stroke="black" points="44.46,-46.54 39.05,-37.43 37.6,-47.93 44.46,-46.54"/>
</g>
<!-- 2&#45;&gt;5 -->
<g id="edge18" class="edge">
<title>2&#45;&gt;5</title>
<path fill="none" stroke="black" d="M80.1,-791.87C85.84,-767.88 96.35,-723.99 103.26,-695.16"/>
<polygon fill="black" stroke="black" points="106.61,-696.2 105.53,-685.66 99.8,-694.57 106.61,-696.2"/>
</g>
<!-- 2&#45;&gt;6 -->
<g id="edge19" class="edge">
<title>2&#45;&gt;6</title>
<path fill="none" stroke="black" d="M85.64,-792.84C91.83,-782.38 99.99,-768.45 107,-756 124.86,-724.29 134.48,-718.52 146,-684 160.92,-639.31 166.58,-584.55 168.72,-551.79"/>
<polygon fill="black" stroke="black" points="172.21,-552.07 169.29,-541.89 165.22,-551.67 172.21,-552.07"/>
</g>
<!-- 2&#45;&gt;4 -->
<g id="edge23" class="edge">
<title>2&#45;&gt;4</title>
<path fill="none" stroke="black" d="M93.15,-795.85C105.22,-785.92 121.1,-771.41 132,-756 190.6,-673.15 191.65,-640.46 206,-540 212.59,-493.87 210.6,-439.55 208.41,-407.26"/>
<polygon fill="black" stroke="black" points="211.91,-407.26 207.68,-397.54 204.93,-407.77 211.91,-407.26"/>
</g>
<!-- 2&#45;&gt;3 -->
<g id="edge22" class="edge">
<title>2&#45;&gt;3</title>
<path fill="none" stroke="black" d="M97.43,-798.85C115.14,-789.63 140.03,-774.64 157,-756 181.36,-729.24 182.3,-717.88 195,-684 241.58,-559.77 252.61,-399.41 255.21,-335.3"/>
<polygon fill="black" stroke="black" points="258.69,-335.78 255.56,-325.66 251.7,-335.52 258.69,-335.78"/>
</g>
<!-- 7 -->
<g id="node16" class="node">
<title>7</title>
<ellipse fill="none" stroke="black" cx="276" cy="-738" rx="27" ry="18"/>
<text text-anchor="middle" x="276" y="-733.33" font-family="Times,serif" font-size="14.00">7</text>
</g>
<!-- 2&#45;&gt;7 -->
<g id="edge20" class="edge">
<title>2&#45;&gt;7</title>
<path fill="none" stroke="black" d="M100.25,-801.37C131.4,-791.46 187.05,-773.36 234,-756 236.88,-754.94 239.85,-753.8 242.82,-752.65"/>
<polygon fill="black" stroke="black" points="244.02,-755.94 252.02,-748.99 241.44,-749.43 244.02,-755.94"/>
</g>
<!-- 7&#45;&gt;19 -->
<g id="edge36" class="edge">
<title>7&#45;&gt;19</title>
<path fill="none" stroke="black" d="M278.84,-719.72C290.06,-647.94 328.38,-366.63 279,-144 271.63,-110.78 278.32,-94.72 253,-72 226.67,-48.37 127.92,-31.59 72.8,-23.83"/>
<polygon fill="black" stroke="black" points="73.3,-20.37 62.92,-22.48 72.35,-27.3 73.3,-20.37"/>
</g>
<!-- 8 -->
<g id="node20" class="node">
<title>8</title>
<ellipse fill="none" stroke="black" cx="336" cy="-666" rx="27" ry="18"/>
<text text-anchor="middle" x="336" y="-661.33" font-family="Times,serif" font-size="14.00">8</text>
</g>
<!-- 7&#45;&gt;8 -->
<g id="edge35" class="edge">
<title>7&#45;&gt;8</title>
<path fill="none" stroke="black" d="M289.02,-721.81C296.8,-712.73 306.86,-701 315.67,-690.72"/>
<polygon fill="black" stroke="black" points="318.17,-693.18 322.02,-683.31 312.86,-688.62 318.17,-693.18"/>
</g>
<!-- 0 -->
<g id="node17" class="node">
<title>0</title>
<ellipse fill="none" stroke="black" cx="27" cy="-954" rx="27" ry="18"/>
<text text-anchor="middle" x="27" y="-949.33" font-family="Times,serif" font-size="14.00">0</text>
</g>
<!-- 1 -->
<g id="node18" class="node">
<title>1</title>
<ellipse fill="none" stroke="black" cx="27" cy="-882" rx="27" ry="18"/>
<text text-anchor="middle" x="27" y="-877.33" font-family="Times,serif" font-size="14.00">1</text>
</g>
<!-- 0&#45;&gt;1 -->
<g id="edge25" class="edge">
<title>0&#45;&gt;1</title>
<path fill="none" stroke="black" d="M27,-935.7C27,-928.41 27,-919.73 27,-911.54"/>
<polygon fill="black" stroke="black" points="30.5,-911.62 27,-901.62 23.5,-911.62 30.5,-911.62"/>
</g>
<!-- 1&#45;&gt;19 -->
<g id="edge26" class="edge">
<title>1&#45;&gt;19</title>
<path fill="none" stroke="black" d="M26.34,-863.66C23.98,-799.45 16,-569.04 16,-379 16,-379 16,-379 16,-161 16,-121.17 23.43,-75.61 29,-47.07"/>
<polygon fill="black" stroke="black" points="32.4,-47.93 30.95,-37.43 25.54,-46.54 32.4,-47.93"/>
</g>
<!-- 1&#45;&gt;2 -->
<g id="edge27" class="edge">
<title>1&#45;&gt;2</title>
<path fill="none" stroke="black" d="M38.12,-865.12C44.13,-856.52 51.7,-845.72 58.49,-836.02"/>
<polygon fill="black" stroke="black" points="61.19,-838.26 64.06,-828.06 55.46,-834.25 61.19,-838.26"/>
</g>
<!-- 9 -->
<g id="node19" class="node">
<title>9</title>
<ellipse fill="none" stroke="black" cx="774" cy="-234" rx="27" ry="18"/>
<text text-anchor="middle" x="774" y="-229.32" font-family="Times,serif" font-size="14.00">9</text>
</g>
<!-- 9&#45;&gt;19 -->
<g id="edge28" class="edge">
<title>9&#45;&gt;19</title>
<path fill="none" stroke="black" d="M778.55,-215.9C786.2,-182.77 797.25,-109.8 758,-72 708.46,-24.28 216.33,-19.41 73.6,-19.01"/>
<polygon fill="black" stroke="black" points="73.93,-15.51 63.93,-18.99 73.92,-22.51 73.93,-15.51"/>
</g>
<!-- 8&#45;&gt;19 -->
<g id="edge34" class="edge">
<title>8&#45;&gt;19</title>
<path fill="none" stroke="black" d="M338.45,-647.61C350.48,-559.3 399.81,-161.12 324,-72 292.15,-34.55 144.4,-23.45 73.35,-20.25"/>
<polygon fill="black" stroke="black" points="73.88,-16.77 63.75,-19.85 73.59,-23.76 73.88,-16.77"/>
</g>
<!-- 8&#45;&gt;10 -->
<g id="edge33" class="edge">
<title>8&#45;&gt;10</title>
<path fill="none" stroke="black" d="M347.32,-649.46C353.72,-640.67 361.88,-629.48 369.13,-619.53"/>
<polygon fill="black" stroke="black" points="371.76,-621.86 374.82,-611.72 366.1,-617.74 371.76,-621.86"/>
</g>
<!-- 8&#45;&gt;9 -->
<g id="edge32" class="edge">
<title>8&#45;&gt;9</title>
<path fill="none" stroke="black" d="M356.31,-653.92C374.34,-643.77 401.15,-627.96 423,-612 541.3,-525.59 576.45,-507.06 672,-396 709.19,-352.77 742.54,-294.78 760.36,-261.49"/>
<polygon fill="black" stroke="black" points="763.3,-263.42 764.88,-252.94 757.11,-260.15 763.3,-263.42"/>
</g>
</g>
</svg>
