<?xml version="1.0" encoding="UTF-8" standalone="no"?>
<!DOCTYPE svg PUBLIC "-//W3C//DTD SVG 1.1//EN"
 "http://www.w3.org/Graphics/SVG/1.1/DTD/svg11.dtd">
<!-- Generated by graphviz version 10.0.1 (0)
 -->
<!-- Pages: 1 -->
<svg width="449pt" height="980pt"
 viewBox="0.00 0.00 449.19 980.00" xmlns="http://www.w3.org/2000/svg" xmlns:xlink="http://www.w3.org/1999/xlink">
<g id="graph0" class="graph" transform="scale(1 1) rotate(0) translate(4 976)">
<polygon fill="white" stroke="none" points="-4,4 -4,-976 445.19,-976 445.19,4 -4,4"/>
<!-- 7 -->
<g id="node1" class="node">
<title>7</title>
<ellipse fill="none" stroke="black" cx="186" cy="-666" rx="27" ry="18"/>
<text text-anchor="middle" x="186" y="-661.33" font-family="Times,serif" font-size="14.00">7</text>
</g>
<!-- 8 -->
<g id="node2" class="node">
<title>8</title>
<ellipse fill="none" stroke="black" cx="187" cy="-594" rx="27" ry="18"/>
<text text-anchor="middle" x="187" y="-589.33" font-family="Times,serif" font-size="14.00">8</text>
</g>
<!-- 7&#45;&gt;8 -->
<g id="edge1" class="edge">
<title>7&#45;&gt;8</title>
<path fill="none" stroke="black" d="M186.25,-647.7C186.35,-640.41 186.48,-631.73 186.59,-623.54"/>
<polygon fill="black" stroke="black" points="190.09,-623.67 186.73,-613.62 183.09,-623.57 190.09,-623.67"/>
</g>
<!-- 9 -->
<g id="node7" class="node">
<title>9</title>
<ellipse fill="none" stroke="black" cx="282" cy="-378" rx="27" ry="18"/>
<text text-anchor="middle" x="282" y="-373.32" font-family="Times,serif" font-size="14.00">9</text>
</g>
<!-- 8&#45;&gt;9 -->
<g id="edge4" class="edge">
<title>8&#45;&gt;9</title>
<path fill="none" stroke="black" d="M202.49,-579.05C212.74,-569.07 225.75,-554.83 234,-540 257.87,-497.09 271.1,-441 277.36,-407.62"/>
<polygon fill="black" stroke="black" points="280.79,-408.36 279.1,-397.9 273.9,-407.13 280.79,-408.36"/>
</g>
<!-- 10 -->
<g id="node8" class="node">
<title>10</title>
<ellipse fill="none" stroke="black" cx="27" cy="-306" rx="27" ry="18"/>
<text text-anchor="middle" x="27" y="-301.32" font-family="Times,serif" font-size="14.00">10</text>
</g>
<!-- 8&#45;&gt;10 -->
<g id="edge5" class="edge">
<title>8&#45;&gt;10</title>
<path fill="none" stroke="black" d="M188.01,-575.8C188.26,-556.44 185.86,-524.95 170,-504 148.41,-475.47 122.68,-493.9 98,-468 88.21,-457.72 55.2,-377.48 37.86,-334.3"/>
<polygon fill="black" stroke="black" points="41.14,-333.08 34.17,-325.09 34.64,-335.68 41.14,-333.08"/>
</g>
<!-- 11 -->
<g id="node9" class="node">
<title>11</title>
<ellipse fill="none" stroke="black" cx="134" cy="-522" rx="27" ry="18"/>
<text text-anchor="middle" x="134" y="-517.33" font-family="Times,serif" font-size="14.00">11</text>
</g>
<!-- 8&#45;&gt;11 -->
<g id="edge6" class="edge">
<title>8&#45;&gt;11</title>
<path fill="none" stroke="black" d="M175.24,-577.46C168.58,-568.67 160.11,-557.48 152.57,-547.53"/>
<polygon fill="black" stroke="black" points="155.47,-545.56 146.64,-539.7 149.89,-549.78 155.47,-545.56"/>
</g>
<!-- 12 -->
<g id="node10" class="node">
<title>12</title>
<ellipse fill="none" stroke="black" cx="134" cy="-450" rx="27" ry="18"/>
<text text-anchor="middle" x="134" y="-445.32" font-family="Times,serif" font-size="14.00">12</text>
</g>
<!-- 8&#45;&gt;12 -->
<g id="edge7" class="edge">
<title>8&#45;&gt;12</title>
<path fill="none" stroke="black" d="M195.66,-576.74C204.25,-558.23 214.59,-527.52 203,-504 195.08,-487.93 179.68,-475.37 165.44,-466.52"/>
<polygon fill="black" stroke="black" points="167.59,-463.72 157.18,-461.75 164.09,-469.78 167.59,-463.72"/>
</g>
<!-- 13 -->
<g id="node11" class="node">
<title>13</title>
<ellipse fill="none" stroke="black" cx="210" cy="-378" rx="27" ry="18"/>
<text text-anchor="middle" x="210" y="-373.32" font-family="Times,serif" font-size="14.00">13</text>
</g>
<!-- 8&#45;&gt;13 -->
<g id="edge8" class="edge">
<title>8&#45;&gt;13</title>
<path fill="none" stroke="black" d="M199.24,-577.82C206.55,-567.75 215.14,-553.88 219,-540 225.72,-515.86 218.64,-446.78 213.78,-407.39"/>
<polygon fill="black" stroke="black" points="217.28,-407.19 212.55,-397.71 210.34,-408.07 217.28,-407.19"/>
</g>
<!-- 19 -->
<g id="node3" class="node">
<title>19</title>
<ellipse fill="none" stroke="black" cx="405" cy="-450" rx="27" ry="18"/>
<text text-anchor="middle" x="405" y="-445.32" font-family="Times,serif" font-size="14.00">19</text>
</g>
<!-- 4 -->
<g id="node4" class="node">
<title>4</title>
<ellipse fill="none" stroke="black" cx="111" cy="-810" rx="27" ry="18"/>
<text text-anchor="middle" x="111" y="-805.33" font-family="Times,serif" font-size="14.00">4</text>
</g>
<!-- 3 -->
<g id="node5" class="node">
<title>3</title>
<ellipse fill="none" stroke="black" cx="221" cy="-738" rx="27" ry="18"/>
<text text-anchor="middle" x="221" y="-733.33" font-family="Times,serif" font-size="14.00">3</text>
</g>
<!-- 4&#45;&gt;3 -->
<g id="edge2" class="edge">
<title>4&#45;&gt;3</title>
<path fill="none" stroke="black" d="M130.16,-796.81C147.35,-785.87 172.82,-769.66 192.42,-757.19"/>
<polygon fill="black" stroke="black" points="194.22,-760.19 200.78,-751.87 190.47,-754.28 194.22,-760.19"/>
</g>
<!-- 5 -->
<g id="node6" class="node">
<title>5</title>
<ellipse fill="none" stroke="black" cx="60" cy="-738" rx="27" ry="18"/>
<text text-anchor="middle" x="60" y="-733.33" font-family="Times,serif" font-size="14.00">5</text>
</g>
<!-- 4&#45;&gt;5 -->
<g id="edge3" class="edge">
<title>4&#45;&gt;5</title>
<path fill="none" stroke="black" d="M99.68,-793.46C93.28,-784.67 85.12,-773.48 77.87,-763.53"/>
<polygon fill="black" stroke="black" points="80.9,-761.74 72.18,-755.72 75.24,-765.86 80.9,-761.74"/>
</g>
<!-- 3&#45;&gt;19 -->
<g id="edge15" class="edge">
<title>3&#45;&gt;19</title>
<path fill="none" stroke="black" d="M247.75,-734.36C282.48,-729.69 343.35,-717.08 383,-684 446.58,-630.96 449.72,-584.65 431,-504 428.85,-494.73 424.84,-485.22 420.6,-476.86"/>
<polygon fill="black" stroke="black" points="423.81,-475.43 415.96,-468.31 417.66,-478.77 423.81,-475.43"/>
</g>
<!-- 5&#45;&gt;7 -->
<g id="edge29" class="edge">
<title>5&#45;&gt;7</title>
<path fill="none" stroke="black" d="M80.24,-725.75C100.73,-714.37 132.62,-696.65 156.03,-683.65"/>
<polygon fill="black" stroke="black" points="157.44,-686.87 164.48,-678.95 154.04,-680.75 157.44,-686.87"/>
</g>
<!-- 5&#45;&gt;10 -->
<g id="edge30" class="edge">
<title>5&#45;&gt;10</title>
<path fill="none" stroke="black" d="M58.67,-719.61C53.6,-653.55 35.5,-417.78 29.19,-335.54"/>
<polygon fill="black" stroke="black" points="32.69,-335.35 28.43,-325.64 25.71,-335.88 32.69,-335.35"/>
</g>
<!-- 5&#45;&gt;11 -->
<g id="edge31" class="edge">
<title>5&#45;&gt;11</title>
<path fill="none" stroke="black" d="M71.46,-721.46C78.53,-711.26 87.3,-697.36 93,-684 112.05,-639.34 123.77,-583.8 129.57,-551"/>
<polygon fill="black" stroke="black" points="132.96,-551.94 131.19,-541.5 126.06,-550.77 132.96,-551.94"/>
</g>
<!-- 5&#45;&gt;12 -->
<g id="edge32" class="edge">
<title>5&#45;&gt;12</title>
<path fill="none" stroke="black" d="M60.29,-719.66C61.5,-680.02 67.58,-580.34 98,-504 102.01,-493.94 108.17,-483.87 114.28,-475.24"/>
<polygon fill="black" stroke="black" points="116.94,-477.52 120.12,-467.42 111.33,-473.34 116.94,-477.52"/>
</g>
<!-- 5&#45;&gt;13 -->
<g id="edge27" class="edge">
<title>5&#45;&gt;13</title>
<path fill="none" stroke="black" d="M85.01,-730.45C128.27,-718.88 213.28,-695.03 222,-684 287.16,-601.57 244.18,-463.86 221.49,-405.95"/>
<polygon fill="black" stroke="black" points="224.82,-404.84 217.83,-396.88 218.33,-407.46 224.82,-404.84"/>
</g>
<!-- 6 -->
<g id="node20" class="node">
<title>6</title>
<ellipse fill="none" stroke="black" cx="344" cy="-594" rx="27" ry="18"/>
<text text-anchor="middle" x="344" y="-589.33" font-family="Times,serif" font-size="14.00">6</text>
</g>
<!-- 5&#45;&gt;6 -->
<g id="edge28" class="edge">
<title>5&#45;&gt;6</title>
<path fill="none" stroke="black" d="M85.32,-731.22C144.09,-717.78 284.91,-685.48 287,-684 308.62,-668.72 323.97,-642.39 333.26,-622.33"/>
<polygon fill="black" stroke="black" points="336.4,-623.88 337.19,-613.32 329.98,-621.08 336.4,-623.88"/>
</g>
<!-- 15 -->
<g id="node14" class="node">
<title>15</title>
<ellipse fill="none" stroke="black" cx="152" cy="-234" rx="27" ry="18"/>
<text text-anchor="middle" x="152" y="-229.32" font-family="Times,serif" font-size="14.00">15</text>
</g>
<!-- 9&#45;&gt;15 -->
<g id="edge16" class="edge">
<title>9&#45;&gt;15</title>
<path fill="none" stroke="black" d="M265.23,-363.58C252.77,-353.29 235.65,-338.45 222,-324 202.78,-303.65 183.28,-278.4 169.76,-260"/>
<polygon fill="black" stroke="black" points="172.69,-258.07 163.98,-252.03 167.02,-262.18 172.69,-258.07"/>
</g>
<!-- 16 -->
<g id="node15" class="node">
<title>16</title>
<ellipse fill="none" stroke="black" cx="129" cy="-162" rx="27" ry="18"/>
<text text-anchor="middle" x="129" y="-157.32" font-family="Times,serif" font-size="14.00">16</text>
</g>
<!-- 9&#45;&gt;16 -->
<g id="edge17" class="edge">
<title>9&#45;&gt;16</title>
<path fill="none" stroke="black" d="M274.45,-360.4C260.16,-329.96 227.05,-263.93 188,-216 178.35,-204.16 165.99,-192.63 155.07,-183.36"/>
<polygon fill="black" stroke="black" points="157.44,-180.78 147.5,-177.12 152.99,-186.18 157.44,-180.78"/>
</g>
<!-- 17 -->
<g id="node16" class="node">
<title>17</title>
<ellipse fill="none" stroke="black" cx="92" cy="-90" rx="27" ry="18"/>
<text text-anchor="middle" x="92" y="-85.33" font-family="Times,serif" font-size="14.00">17</text>
</g>
<!-- 9&#45;&gt;17 -->
<g id="edge18" class="edge">
<title>9&#45;&gt;17</title>
<path fill="none" stroke="black" d="M279.45,-359.74C276.35,-341.4 270.23,-311.84 260,-288 229.76,-217.54 218.38,-199.03 165,-144 151.98,-130.57 135.21,-118.14 121.04,-108.69"/>
<polygon fill="black" stroke="black" points="123.28,-105.98 112.99,-103.48 119.48,-111.85 123.28,-105.98"/>
</g>
<!-- 10&#45;&gt;15 -->
<g id="edge23" class="edge">
<title>10&#45;&gt;15</title>
<path fill="none" stroke="black" d="M47.36,-293.6C67.52,-282.31 98.62,-264.89 121.68,-251.98"/>
<polygon fill="black" stroke="black" points="123.31,-255.08 130.33,-247.14 119.89,-248.97 123.31,-255.08"/>
</g>
<!-- 10&#45;&gt;16 -->
<g id="edge24" class="edge">
<title>10&#45;&gt;16</title>
<path fill="none" stroke="black" d="M38.71,-289.81C46.77,-279.27 57.66,-264.88 67,-252 82.41,-230.75 99.43,-206.25 111.73,-188.34"/>
<polygon fill="black" stroke="black" points="114.59,-190.36 117.35,-180.13 108.81,-186.4 114.59,-190.36"/>
</g>
<!-- 10&#45;&gt;17 -->
<g id="edge25" class="edge">
<title>10&#45;&gt;17</title>
<path fill="none" stroke="black" d="M32.21,-287.85C43.41,-250.98 69.87,-163.86 83.52,-118.91"/>
<polygon fill="black" stroke="black" points="86.86,-119.97 86.42,-109.38 80.16,-117.93 86.86,-119.97"/>
</g>
<!-- 18 -->
<g id="node17" class="node">
<title>18</title>
<ellipse fill="none" stroke="black" cx="53" cy="-18" rx="27" ry="18"/>
<text text-anchor="middle" x="53" y="-13.32" font-family="Times,serif" font-size="14.00">18</text>
</g>
<!-- 10&#45;&gt;18 -->
<g id="edge26" class="edge">
<title>10&#45;&gt;18</title>
<path fill="none" stroke="black" d="M28.59,-287.54C32.93,-239.76 45.04,-106.51 50.4,-47.61"/>
<polygon fill="black" stroke="black" points="53.88,-48.01 51.3,-37.74 46.91,-47.38 53.88,-48.01"/>
</g>
<!-- 11&#45;&gt;12 -->
<g id="edge37" class="edge">
<title>11&#45;&gt;12</title>
<path fill="none" stroke="black" d="M134,-503.7C134,-496.41 134,-487.73 134,-479.54"/>
<polygon fill="black" stroke="black" points="137.5,-479.62 134,-469.62 130.5,-479.62 137.5,-479.62"/>
</g>
<!-- 12&#45;&gt;13 -->
<g id="edge34" class="edge">
<title>12&#45;&gt;13</title>
<path fill="none" stroke="black" d="M149.38,-434.83C159.99,-425.06 174.3,-411.88 186.35,-400.78"/>
<polygon fill="black" stroke="black" points="188.55,-403.52 193.53,-394.17 183.8,-398.37 188.55,-403.52"/>
</g>
<!-- 12&#45;&gt;15 -->
<g id="edge36" class="edge">
<title>12&#45;&gt;15</title>
<path fill="none" stroke="black" d="M125.19,-432.92C110.19,-403.33 83.18,-338.63 103,-288 107.83,-275.67 117.02,-264.49 126.14,-255.61"/>
<polygon fill="black" stroke="black" points="128.21,-258.46 133.26,-249.15 123.5,-253.28 128.21,-258.46"/>
</g>
<!-- 14 -->
<g id="node18" class="node">
<title>14</title>
<ellipse fill="none" stroke="black" cx="139" cy="-306" rx="27" ry="18"/>
<text text-anchor="middle" x="139" y="-301.32" font-family="Times,serif" font-size="14.00">14</text>
</g>
<!-- 12&#45;&gt;14 -->
<g id="edge35" class="edge">
<title>12&#45;&gt;14</title>
<path fill="none" stroke="black" d="M134.61,-431.59C135.46,-407.61 136.99,-364.14 138,-335.42"/>
<polygon fill="black" stroke="black" points="141.49,-335.74 138.34,-325.62 134.49,-335.49 141.49,-335.74"/>
</g>
<!-- 13&#45;&gt;14 -->
<g id="edge19" class="edge">
<title>13&#45;&gt;14</title>
<path fill="none" stroke="black" d="M195.29,-362.5C185.58,-352.92 172.66,-340.19 161.66,-329.34"/>
<polygon fill="black" stroke="black" points="164.35,-327.08 154.77,-322.55 159.43,-332.06 164.35,-327.08"/>
</g>
<!-- 1 -->
<g id="node12" class="node">
<title>1</title>
<ellipse fill="none" stroke="black" cx="147" cy="-882" rx="27" ry="18"/>
<text text-anchor="middle" x="147" y="-877.33" font-family="Times,serif" font-size="14.00">1</text>
</g>
<!-- 1&#45;&gt;4 -->
<g id="edge9" class="edge">
<title>1&#45;&gt;4</title>
<path fill="none" stroke="black" d="M138.65,-864.76C134.42,-856.55 129.19,-846.37 124.42,-837.09"/>
<polygon fill="black" stroke="black" points="127.68,-835.79 120,-828.49 121.46,-838.99 127.68,-835.79"/>
</g>
<!-- 1&#45;&gt;3 -->
<g id="edge11" class="edge">
<title>1&#45;&gt;3</title>
<path fill="none" stroke="black" d="M169.32,-871.37C186.3,-862.72 208.48,-848.24 219,-828 228.65,-809.44 228.65,-785.63 226.51,-767.3"/>
<polygon fill="black" stroke="black" points="230.01,-767.05 225.1,-757.66 223.09,-768.06 230.01,-767.05"/>
</g>
<!-- 2 -->
<g id="node13" class="node">
<title>2</title>
<ellipse fill="none" stroke="black" cx="183" cy="-810" rx="27" ry="18"/>
<text text-anchor="middle" x="183" y="-805.33" font-family="Times,serif" font-size="14.00">2</text>
</g>
<!-- 1&#45;&gt;2 -->
<g id="edge10" class="edge">
<title>1&#45;&gt;2</title>
<path fill="none" stroke="black" d="M155.35,-864.76C159.58,-856.55 164.81,-846.37 169.58,-837.09"/>
<polygon fill="black" stroke="black" points="172.54,-838.99 174,-828.49 166.32,-835.79 172.54,-838.99"/>
</g>
<!-- 2&#45;&gt;19 -->
<g id="edge33" class="edge">
<title>2&#45;&gt;19</title>
<path fill="none" stroke="black" d="M177.88,-791.93C173.14,-772.39 169.01,-740.46 185,-720 222.45,-672.09 265.45,-716.26 317,-684 353.05,-661.45 362.03,-650.53 380,-612 400.13,-568.85 404.59,-512.84 405.29,-479.53"/>
<polygon fill="black" stroke="black" points="408.79,-479.9 405.39,-469.87 401.79,-479.83 408.79,-479.9"/>
</g>
<!-- 15&#45;&gt;16 -->
<g id="edge12" class="edge">
<title>15&#45;&gt;16</title>
<path fill="none" stroke="black" d="M146.43,-216.05C143.92,-208.4 140.88,-199.16 138.05,-190.56"/>
<polygon fill="black" stroke="black" points="141.44,-189.63 134.99,-181.23 134.79,-191.82 141.44,-189.63"/>
</g>
<!-- 16&#45;&gt;17 -->
<g id="edge20" class="edge">
<title>16&#45;&gt;17</title>
<path fill="none" stroke="black" d="M120.42,-144.76C116.08,-136.55 110.7,-126.37 105.79,-117.09"/>
<polygon fill="black" stroke="black" points="109.01,-115.69 101.24,-108.49 102.82,-118.96 109.01,-115.69"/>
</g>
<!-- 17&#45;&gt;18 -->
<g id="edge13" class="edge">
<title>17&#45;&gt;18</title>
<path fill="none" stroke="black" d="M82.95,-72.76C78.38,-64.55 72.71,-54.37 67.54,-45.09"/>
<polygon fill="black" stroke="black" points="70.66,-43.5 62.73,-36.47 64.54,-46.91 70.66,-43.5"/>
</g>
<!-- 14&#45;&gt;15 -->
<g id="edge14" class="edge">
<title>14&#45;&gt;15</title>
<path fill="none" stroke="black" d="M142.21,-287.7C143.58,-280.32 145.22,-271.52 146.75,-263.25"/>
<polygon fill="black" stroke="black" points="150.16,-264.06 148.55,-253.59 143.28,-262.79 150.16,-264.06"/>
</g>
<!-- 0 -->
<g id="node19" class="node">
<title>0</title>
<ellipse fill="none" stroke="black" cx="147" cy="-954" rx="27" ry="18"/>
<text text-anchor="middle" x="147" y="-949.33" font-family="Times,serif" font-size="14.00">0</text>
</g>
<!-- 0&#45;&gt;1 -->
<g id="edge21" class="edge">
<title>0&#45;&gt;1</title>
<path fill="none" stroke="black" d="M147,-935.7C147,-928.41 147,-919.73 147,-911.54"/>
<polygon fill="black" stroke="black" points="150.5,-911.62 147,-901.62 143.5,-911.62 150.5,-911.62"/>
</g>
<!-- 6&#45;&gt;13 -->
<g id="edge22" class="edge">
<title>6&#45;&gt;13</title>
<path fill="none" stroke="black" d="M340.98,-575.78C337.23,-557.22 329.72,-527.22 317,-504 294.75,-463.39 257.78,-424.09 233.65,-400.73"/>
<polygon fill="black" stroke="black" points="236.14,-398.27 226.49,-393.91 231.32,-403.34 236.14,-398.27"/>
</g>
</g>
</svg>
