<?xml version="1.0" encoding="UTF-8" standalone="no"?>
<!DOCTYPE svg PUBLIC "-//W3C//DTD SVG 1.1//EN"
 "http://www.w3.org/Graphics/SVG/1.1/DTD/svg11.dtd">
<!-- Generated by graphviz version 10.0.1 (0)
 -->
<!-- Pages: 1 -->
<svg width="560pt" height="1124pt"
 viewBox="0.00 0.00 559.61 1124.00" xmlns="http://www.w3.org/2000/svg" xmlns:xlink="http://www.w3.org/1999/xlink">
<g id="graph0" class="graph" transform="scale(1 1) rotate(0) translate(4 1120)">
<polygon fill="white" stroke="none" points="-4,4 -4,-1120 555.61,-1120 555.61,4 -4,4"/>
<!-- 7 -->
<g id="node1" class="node">
<title>7</title>
<ellipse fill="none" stroke="black" cx="288" cy="-738" rx="27" ry="18"/>
<text text-anchor="middle" x="288" y="-733.33" font-family="Times,serif" font-size="14.00">7</text>
</g>
<!-- 8 -->
<g id="node2" class="node">
<title>8</title>
<ellipse fill="none" stroke="black" cx="247" cy="-666" rx="27" ry="18"/>
<text text-anchor="middle" x="247" y="-661.33" font-family="Times,serif" font-size="14.00">8</text>
</g>
<!-- 7&#45;&gt;8 -->
<g id="edge1" class="edge">
<title>7&#45;&gt;8</title>
<path fill="none" stroke="black" d="M278.49,-720.76C273.63,-712.46 267.59,-702.15 262.11,-692.79"/>
<polygon fill="black" stroke="black" points="265.3,-691.31 257.22,-684.45 259.26,-694.85 265.3,-691.31"/>
</g>
<!-- 9 -->
<g id="node3" class="node">
<title>9</title>
<ellipse fill="none" stroke="black" cx="146" cy="-594" rx="27" ry="18"/>
<text text-anchor="middle" x="146" y="-589.33" font-family="Times,serif" font-size="14.00">9</text>
</g>
<!-- 8&#45;&gt;9 -->
<g id="edge2" class="edge">
<title>8&#45;&gt;9</title>
<path fill="none" stroke="black" d="M228.94,-652.49C213.53,-641.8 191.12,-626.27 173.48,-614.04"/>
<polygon fill="black" stroke="black" points="175.7,-611.32 165.48,-608.5 171.71,-617.08 175.7,-611.32"/>
</g>
<!-- 10 -->
<g id="node13" class="node">
<title>10</title>
<ellipse fill="none" stroke="black" cx="68" cy="-522" rx="27" ry="18"/>
<text text-anchor="middle" x="68" y="-517.33" font-family="Times,serif" font-size="14.00">10</text>
</g>
<!-- 9&#45;&gt;10 -->
<g id="edge29" class="edge">
<title>9&#45;&gt;10</title>
<path fill="none" stroke="black" d="M130.59,-579.17C119.55,-569.26 104.47,-555.73 91.88,-544.43"/>
<polygon fill="black" stroke="black" points="94.55,-542.13 84.77,-538.05 89.88,-547.34 94.55,-542.13"/>
</g>
<!-- 15 -->
<g id="node4" class="node">
<title>15</title>
<ellipse fill="none" stroke="black" cx="162" cy="-234" rx="27" ry="18"/>
<text text-anchor="middle" x="162" y="-229.32" font-family="Times,serif" font-size="14.00">15</text>
</g>
<!-- 16 -->
<g id="node5" class="node">
<title>16</title>
<ellipse fill="none" stroke="black" cx="86" cy="-162" rx="27" ry="18"/>
<text text-anchor="middle" x="86" y="-157.32" font-family="Times,serif" font-size="14.00">16</text>
</g>
<!-- 15&#45;&gt;16 -->
<g id="edge3" class="edge">
<title>15&#45;&gt;16</title>
<path fill="none" stroke="black" d="M146.62,-218.83C136.01,-209.06 121.7,-195.88 109.65,-184.78"/>
<polygon fill="black" stroke="black" points="112.2,-182.37 102.47,-178.17 107.45,-187.52 112.2,-182.37"/>
</g>
<!-- 18 -->
<g id="node10" class="node">
<title>18</title>
<ellipse fill="none" stroke="black" cx="159" cy="-90" rx="27" ry="18"/>
<text text-anchor="middle" x="159" y="-85.33" font-family="Times,serif" font-size="14.00">18</text>
</g>
<!-- 16&#45;&gt;18 -->
<g id="edge25" class="edge">
<title>16&#45;&gt;18</title>
<path fill="none" stroke="black" d="M100.77,-146.83C110.8,-137.22 124.26,-124.31 135.72,-113.32"/>
<polygon fill="black" stroke="black" points="138.11,-115.88 142.91,-106.43 133.27,-110.83 138.11,-115.88"/>
</g>
<!-- 17 -->
<g id="node19" class="node">
<title>17</title>
<ellipse fill="none" stroke="black" cx="87" cy="-90" rx="27" ry="18"/>
<text text-anchor="middle" x="87" y="-85.33" font-family="Times,serif" font-size="14.00">17</text>
</g>
<!-- 16&#45;&gt;17 -->
<g id="edge26" class="edge">
<title>16&#45;&gt;17</title>
<path fill="none" stroke="black" d="M86.25,-143.7C86.35,-136.41 86.48,-127.73 86.59,-119.54"/>
<polygon fill="black" stroke="black" points="90.09,-119.67 86.73,-109.62 83.09,-119.57 90.09,-119.67"/>
</g>
<!-- 1 -->
<g id="node6" class="node">
<title>1</title>
<ellipse fill="none" stroke="black" cx="85" cy="-1026" rx="27" ry="18"/>
<text text-anchor="middle" x="85" y="-1021.33" font-family="Times,serif" font-size="14.00">1</text>
</g>
<!-- 2 -->
<g id="node7" class="node">
<title>2</title>
<ellipse fill="none" stroke="black" cx="85" cy="-954" rx="27" ry="18"/>
<text text-anchor="middle" x="85" y="-949.33" font-family="Times,serif" font-size="14.00">2</text>
</g>
<!-- 1&#45;&gt;2 -->
<g id="edge4" class="edge">
<title>1&#45;&gt;2</title>
<path fill="none" stroke="black" d="M85,-1007.7C85,-1000.41 85,-991.73 85,-983.54"/>
<polygon fill="black" stroke="black" points="88.5,-983.62 85,-973.62 81.5,-983.62 88.5,-983.62"/>
</g>
<!-- 3 -->
<g id="node11" class="node">
<title>3</title>
<ellipse fill="none" stroke="black" cx="85" cy="-882" rx="27" ry="18"/>
<text text-anchor="middle" x="85" y="-877.33" font-family="Times,serif" font-size="14.00">3</text>
</g>
<!-- 2&#45;&gt;3 -->
<g id="edge7" class="edge">
<title>2&#45;&gt;3</title>
<path fill="none" stroke="black" d="M85,-935.7C85,-928.41 85,-919.73 85,-911.54"/>
<polygon fill="black" stroke="black" points="88.5,-911.62 85,-901.62 81.5,-911.62 88.5,-911.62"/>
</g>
<!-- 11 -->
<g id="node8" class="node">
<title>11</title>
<ellipse fill="none" stroke="black" cx="334" cy="-378" rx="27" ry="18"/>
<text text-anchor="middle" x="334" y="-373.32" font-family="Times,serif" font-size="14.00">11</text>
</g>
<!-- 19 -->
<g id="node9" class="node">
<title>19</title>
<ellipse fill="none" stroke="black" cx="53" cy="-18" rx="27" ry="18"/>
<text text-anchor="middle" x="53" y="-13.32" font-family="Times,serif" font-size="14.00">19</text>
</g>
<!-- 11&#45;&gt;19 -->
<g id="edge5" class="edge">
<title>11&#45;&gt;19</title>
<path fill="none" stroke="black" d="M330.95,-359.8C321.01,-308.63 284.82,-155.71 195,-72 165.94,-44.92 121.77,-31.35 90.42,-24.77"/>
<polygon fill="black" stroke="black" points="91.47,-21.41 80.99,-22.94 90.14,-28.28 91.47,-21.41"/>
</g>
<!-- 18&#45;&gt;19 -->
<g id="edge6" class="edge">
<title>18&#45;&gt;19</title>
<path fill="none" stroke="black" d="M140.54,-76.81C124.15,-65.98 99.95,-50 81.15,-37.59"/>
<polygon fill="black" stroke="black" points="83.14,-34.71 72.87,-32.12 79.29,-40.55 83.14,-34.71"/>
</g>
<!-- 3&#45;&gt;19 -->
<g id="edge24" class="edge">
<title>3&#45;&gt;19</title>
<path fill="none" stroke="black" d="M79.94,-863.84C61.64,-800.24 0,-571.7 0,-379 0,-379 0,-379 0,-305 0,-208.93 29.27,-97.7 44.31,-46.9"/>
<polygon fill="black" stroke="black" points="47.66,-47.92 47.19,-37.33 40.95,-45.9 47.66,-47.92"/>
</g>
<!-- 4 -->
<g id="node16" class="node">
<title>4</title>
<ellipse fill="none" stroke="black" cx="124" cy="-810" rx="27" ry="18"/>
<text text-anchor="middle" x="124" y="-805.33" font-family="Times,serif" font-size="14.00">4</text>
</g>
<!-- 3&#45;&gt;4 -->
<g id="edge23" class="edge">
<title>3&#45;&gt;4</title>
<path fill="none" stroke="black" d="M94.05,-864.76C98.62,-856.55 104.29,-846.37 109.46,-837.09"/>
<polygon fill="black" stroke="black" points="112.46,-838.91 114.27,-828.47 106.34,-835.5 112.46,-838.91"/>
</g>
<!-- 6 -->
<g id="node12" class="node">
<title>6</title>
<ellipse fill="none" stroke="black" cx="165" cy="-738" rx="27" ry="18"/>
<text text-anchor="middle" x="165" y="-733.33" font-family="Times,serif" font-size="14.00">6</text>
</g>
<!-- 6&#45;&gt;8 -->
<g id="edge9" class="edge">
<title>6&#45;&gt;8</title>
<path fill="none" stroke="black" d="M181.2,-723.17C192.88,-713.2 208.86,-699.56 222.15,-688.21"/>
<polygon fill="black" stroke="black" points="224.35,-690.94 229.68,-681.78 219.8,-685.61 224.35,-690.94"/>
</g>
<!-- 6&#45;&gt;9 -->
<g id="edge10" class="edge">
<title>6&#45;&gt;9</title>
<path fill="none" stroke="black" d="M162.67,-719.59C159.46,-695.61 153.65,-652.14 149.8,-623.42"/>
<polygon fill="black" stroke="black" points="153.29,-623.06 148.49,-613.61 146.35,-623.99 153.29,-623.06"/>
</g>
<!-- 6&#45;&gt;10 -->
<g id="edge8" class="edge">
<title>6&#45;&gt;10</title>
<path fill="none" stroke="black" d="M157.55,-720.56C140.9,-683.84 100.56,-594.84 80.2,-549.91"/>
<polygon fill="black" stroke="black" points="83.42,-548.53 76.1,-540.87 77.04,-551.42 83.42,-548.53"/>
</g>
<!-- 10&#45;&gt;15 -->
<g id="edge33" class="edge">
<title>10&#45;&gt;15</title>
<path fill="none" stroke="black" d="M73.6,-503.97C89.27,-456.28 133.7,-321.11 152.94,-262.58"/>
<polygon fill="black" stroke="black" points="156.16,-263.98 155.96,-253.38 149.51,-261.79 156.16,-263.98"/>
</g>
<!-- 10&#45;&gt;16 -->
<g id="edge34" class="edge">
<title>10&#45;&gt;16</title>
<path fill="none" stroke="black" d="M68.87,-503.73C71.75,-446.43 81.01,-262.18 84.58,-191.22"/>
<polygon fill="black" stroke="black" points="88.06,-191.77 85.06,-181.61 81.07,-191.42 88.06,-191.77"/>
</g>
<!-- 10&#45;&gt;11 -->
<g id="edge35" class="edge">
<title>10&#45;&gt;11</title>
<path fill="none" stroke="black" d="M92.59,-513.78C121.2,-504.91 169.44,-488.49 208,-468 245.33,-448.16 284.52,-418.96 309.09,-399.47"/>
<polygon fill="black" stroke="black" points="310.97,-402.46 316.58,-393.47 306.59,-397 310.97,-402.46"/>
</g>
<!-- 14 -->
<g id="node14" class="node">
<title>14</title>
<ellipse fill="none" stroke="black" cx="207" cy="-306" rx="27" ry="18"/>
<text text-anchor="middle" x="207" y="-301.32" font-family="Times,serif" font-size="14.00">14</text>
</g>
<!-- 10&#45;&gt;14 -->
<g id="edge32" class="edge">
<title>10&#45;&gt;14</title>
<path fill="none" stroke="black" d="M87.72,-509.12C102.33,-499.52 121.89,-484.86 135,-468 167.12,-426.71 188.44,-368.82 199.06,-334.88"/>
<polygon fill="black" stroke="black" points="202.39,-335.97 201.94,-325.39 195.69,-333.94 202.39,-335.97"/>
</g>
<!-- 12 -->
<g id="node17" class="node">
<title>12</title>
<ellipse fill="none" stroke="black" cx="353" cy="-450" rx="27" ry="18"/>
<text text-anchor="middle" x="353" y="-445.32" font-family="Times,serif" font-size="14.00">12</text>
</g>
<!-- 10&#45;&gt;12 -->
<g id="edge30" class="edge">
<title>10&#45;&gt;12</title>
<path fill="none" stroke="black" d="M94.4,-516.86C139.6,-509.43 234.43,-492.29 312,-468 314.77,-467.13 317.61,-466.15 320.44,-465.11"/>
<polygon fill="black" stroke="black" points="321.7,-468.38 329.73,-461.47 319.14,-461.86 321.7,-468.38"/>
</g>
<!-- 13 -->
<g id="node20" class="node">
<title>13</title>
<ellipse fill="none" stroke="black" cx="247" cy="-378" rx="27" ry="18"/>
<text text-anchor="middle" x="247" y="-373.32" font-family="Times,serif" font-size="14.00">13</text>
</g>
<!-- 10&#45;&gt;13 -->
<g id="edge31" class="edge">
<title>10&#45;&gt;13</title>
<path fill="none" stroke="black" d="M91.87,-512.98C115.21,-504.36 150.95,-489 177,-468 199.05,-450.22 218.46,-424.26 231.21,-404.96"/>
<polygon fill="black" stroke="black" points="234.15,-406.86 236.6,-396.56 228.25,-403.08 234.15,-406.86"/>
</g>
<!-- 14&#45;&gt;15 -->
<g id="edge11" class="edge">
<title>14&#45;&gt;15</title>
<path fill="none" stroke="black" d="M196.79,-289.12C191.32,-280.61 184.46,-269.94 178.28,-260.32"/>
<polygon fill="black" stroke="black" points="181.34,-258.61 172.99,-252.09 175.45,-262.4 181.34,-258.61"/>
</g>
<!-- 0 -->
<g id="node15" class="node">
<title>0</title>
<ellipse fill="none" stroke="black" cx="85" cy="-1098" rx="27" ry="18"/>
<text text-anchor="middle" x="85" y="-1093.33" font-family="Times,serif" font-size="14.00">0</text>
</g>
<!-- 0&#45;&gt;1 -->
<g id="edge12" class="edge">
<title>0&#45;&gt;1</title>
<path fill="none" stroke="black" d="M85,-1079.7C85,-1072.41 85,-1063.73 85,-1055.54"/>
<polygon fill="black" stroke="black" points="88.5,-1055.62 85,-1045.62 81.5,-1055.62 88.5,-1055.62"/>
</g>
<!-- 4&#45;&gt;7 -->
<g id="edge18" class="edge">
<title>4&#45;&gt;7</title>
<path fill="none" stroke="black" d="M146.46,-799.41C174.6,-787.4 223.03,-766.73 255.28,-752.96"/>
<polygon fill="black" stroke="black" points="256.33,-756.32 264.16,-749.18 253.59,-749.88 256.33,-756.32"/>
</g>
<!-- 4&#45;&gt;8 -->
<g id="edge19" class="edge">
<title>4&#45;&gt;8</title>
<path fill="none" stroke="black" d="M145.07,-798.28C161.86,-788.92 185.12,-774.02 201,-756 216.98,-737.87 229.17,-713.2 236.97,-694.43"/>
<polygon fill="black" stroke="black" points="240.16,-695.88 240.59,-685.3 233.65,-693.3 240.16,-695.88"/>
</g>
<!-- 4&#45;&gt;9 -->
<g id="edge20" class="edge">
<title>4&#45;&gt;9</title>
<path fill="none" stroke="black" d="M124.57,-791.57C125.26,-773.61 126.62,-744.8 129,-720 132.18,-686.84 137.58,-648.95 141.45,-623.67"/>
<polygon fill="black" stroke="black" points="144.9,-624.25 142.97,-613.84 137.98,-623.18 144.9,-624.25"/>
</g>
<!-- 4&#45;&gt;11 -->
<g id="edge14" class="edge">
<title>4&#45;&gt;11</title>
<path fill="none" stroke="black" d="M151.37,-808.61C220.09,-807 397,-798.71 433,-756 478.76,-701.72 698.25,-1029.28 389,-432 382.4,-419.25 371.54,-407.8 361.21,-398.84"/>
<polygon fill="black" stroke="black" points="363.52,-396.2 353.56,-392.59 359.09,-401.62 363.52,-396.2"/>
</g>
<!-- 4&#45;&gt;6 -->
<g id="edge17" class="edge">
<title>4&#45;&gt;6</title>
<path fill="none" stroke="black" d="M133.51,-792.76C138.37,-784.46 144.41,-774.15 149.89,-764.79"/>
<polygon fill="black" stroke="black" points="152.74,-766.85 154.78,-756.45 146.7,-763.31 152.74,-766.85"/>
</g>
<!-- 4&#45;&gt;10 -->
<g id="edge13" class="edge">
<title>4&#45;&gt;10</title>
<path fill="none" stroke="black" d="M151.08,-807.93C213.61,-804.82 365.1,-793.5 396,-756 406.17,-743.65 402.55,-734.6 396,-720 342.66,-601.22 178.71,-548.84 104.8,-530.82"/>
<polygon fill="black" stroke="black" points="105.75,-527.44 95.22,-528.56 104.15,-534.26 105.75,-527.44"/>
</g>
<!-- 4&#45;&gt;12 -->
<g id="edge15" class="edge">
<title>4&#45;&gt;12</title>
<path fill="none" stroke="black" d="M151.29,-808.26C216.75,-805.85 379.77,-795.87 413,-756 484.28,-670.46 249.92,-546.32 247,-540 240.29,-525.48 238.59,-517.61 247,-504 262.03,-479.67 291.99,-466.14 316.23,-458.85"/>
<polygon fill="black" stroke="black" points="317.06,-462.25 325.78,-456.24 315.21,-455.5 317.06,-462.25"/>
</g>
<!-- 5 -->
<g id="node18" class="node">
<title>5</title>
<ellipse fill="none" stroke="black" cx="360" cy="-738" rx="27" ry="18"/>
<text text-anchor="middle" x="360" y="-733.33" font-family="Times,serif" font-size="14.00">5</text>
</g>
<!-- 4&#45;&gt;5 -->
<g id="edge16" class="edge">
<title>4&#45;&gt;5</title>
<path fill="none" stroke="black" d="M149.71,-803.76C188.24,-795.56 262.93,-778.3 324,-756 325.54,-755.44 327.11,-754.83 328.68,-754.2"/>
<polygon fill="black" stroke="black" points="329.8,-757.53 337.57,-750.33 327,-751.11 329.8,-757.53"/>
</g>
<!-- 12&#45;&gt;13 -->
<g id="edge27" class="edge">
<title>12&#45;&gt;13</title>
<path fill="none" stroke="black" d="M334.54,-436.81C318.15,-425.98 293.95,-410 275.15,-397.59"/>
<polygon fill="black" stroke="black" points="277.14,-394.71 266.87,-392.12 273.29,-400.55 277.14,-394.71"/>
</g>
<!-- 5&#45;&gt;8 -->
<g id="edge21" class="edge">
<title>5&#45;&gt;8</title>
<path fill="none" stroke="black" d="M340.57,-724.97C322.76,-713.93 296.14,-697.44 275.85,-684.87"/>
<polygon fill="black" stroke="black" points="277.8,-681.96 267.46,-679.67 274.12,-687.92 277.8,-681.96"/>
</g>
<!-- 5&#45;&gt;9 -->
<g id="edge22" class="edge">
<title>5&#45;&gt;9</title>
<path fill="none" stroke="black" d="M349.85,-721.08C336.62,-701.45 311.74,-668.23 283,-648 252.16,-626.29 211.24,-611.98 182.17,-603.76"/>
<polygon fill="black" stroke="black" points="183.3,-600.44 172.74,-601.2 181.47,-607.2 183.3,-600.44"/>
</g>
<!-- 17&#45;&gt;19 -->
<g id="edge36" class="edge">
<title>17&#45;&gt;19</title>
<path fill="none" stroke="black" d="M78.94,-72.41C75.05,-64.39 70.28,-54.57 65.89,-45.54"/>
<polygon fill="black" stroke="black" points="69.18,-44.3 61.66,-36.83 62.88,-47.36 69.18,-44.3"/>
</g>
<!-- 13&#45;&gt;14 -->
<g id="edge28" class="edge">
<title>13&#45;&gt;14</title>
<path fill="none" stroke="black" d="M237.72,-360.76C233.03,-352.55 227.21,-342.37 221.91,-333.09"/>
<polygon fill="black" stroke="black" points="224.98,-331.41 216.98,-324.46 218.9,-334.88 224.98,-331.41"/>
</g>
</g>
</svg>
