<?xml version="1.0" encoding="UTF-8" standalone="no"?>
<!DOCTYPE svg PUBLIC "-//W3C//DTD SVG 1.1//EN"
 "http://www.w3.org/Graphics/SVG/1.1/DTD/svg11.dtd">
<!-- Generated by graphviz version 10.0.1 (0)
 -->
<!-- Pages: 1 -->
<svg width="426pt" height="980pt"
 viewBox="0.00 0.00 425.81 980.00" xmlns="http://www.w3.org/2000/svg" xmlns:xlink="http://www.w3.org/1999/xlink">
<g id="graph0" class="graph" transform="scale(1 1) rotate(0) translate(4 976)">
<polygon fill="white" stroke="none" points="-4,4 -4,-976 421.81,-976 421.81,4 -4,4"/>
<!-- 16 -->
<g id="node1" class="node">
<title>16</title>
<ellipse fill="none" stroke="black" cx="196" cy="-162" rx="27" ry="18"/>
<text text-anchor="middle" x="196" y="-157.32" font-family="Times,serif" font-size="14.00">16</text>
</g>
<!-- 18 -->
<g id="node2" class="node">
<title>18</title>
<ellipse fill="none" stroke="black" cx="275" cy="-90" rx="27" ry="18"/>
<text text-anchor="middle" x="275" y="-85.33" font-family="Times,serif" font-size="14.00">18</text>
</g>
<!-- 16&#45;&gt;18 -->
<g id="edge1" class="edge">
<title>16&#45;&gt;18</title>
<path fill="none" stroke="black" d="M211.61,-147.17C222.79,-137.26 238.06,-123.73 250.81,-112.43"/>
<polygon fill="black" stroke="black" points="252.86,-115.3 258.02,-106.04 248.22,-110.06 252.86,-115.3"/>
</g>
<!-- 17 -->
<g id="node3" class="node">
<title>17</title>
<ellipse fill="none" stroke="black" cx="196" cy="-90" rx="27" ry="18"/>
<text text-anchor="middle" x="196" y="-85.33" font-family="Times,serif" font-size="14.00">17</text>
</g>
<!-- 16&#45;&gt;17 -->
<g id="edge2" class="edge">
<title>16&#45;&gt;17</title>
<path fill="none" stroke="black" d="M196,-143.7C196,-136.41 196,-127.73 196,-119.54"/>
<polygon fill="black" stroke="black" points="199.5,-119.62 196,-109.62 192.5,-119.62 199.5,-119.62"/>
</g>
<!-- 19 -->
<g id="node14" class="node">
<title>19</title>
<ellipse fill="none" stroke="black" cx="36" cy="-18" rx="27" ry="18"/>
<text text-anchor="middle" x="36" y="-13.32" font-family="Times,serif" font-size="14.00">19</text>
</g>
<!-- 17&#45;&gt;19 -->
<g id="edge16" class="edge">
<title>17&#45;&gt;19</title>
<path fill="none" stroke="black" d="M173.75,-79.27C146.49,-67.34 100.05,-47.02 68.71,-33.31"/>
<polygon fill="black" stroke="black" points="70.27,-30.17 59.7,-29.37 67.46,-36.58 70.27,-30.17"/>
</g>
<!-- 8 -->
<g id="node4" class="node">
<title>8</title>
<ellipse fill="none" stroke="black" cx="191" cy="-450" rx="27" ry="18"/>
<text text-anchor="middle" x="191" y="-445.32" font-family="Times,serif" font-size="14.00">8</text>
</g>
<!-- 10 -->
<g id="node5" class="node">
<title>10</title>
<ellipse fill="none" stroke="black" cx="152" cy="-306" rx="27" ry="18"/>
<text text-anchor="middle" x="152" y="-301.32" font-family="Times,serif" font-size="14.00">10</text>
</g>
<!-- 8&#45;&gt;10 -->
<g id="edge3" class="edge">
<title>8&#45;&gt;10</title>
<path fill="none" stroke="black" d="M193.8,-431.77C196.1,-413.47 197.84,-383.94 190,-360 186.48,-349.25 179.92,-338.83 173.23,-330.1"/>
<polygon fill="black" stroke="black" points="176.07,-328.05 167.02,-322.54 170.66,-332.49 176.07,-328.05"/>
</g>
<!-- 11 -->
<g id="node6" class="node">
<title>11</title>
<ellipse fill="none" stroke="black" cx="76" cy="-234" rx="27" ry="18"/>
<text text-anchor="middle" x="76" y="-229.32" font-family="Times,serif" font-size="14.00">11</text>
</g>
<!-- 8&#45;&gt;11 -->
<g id="edge4" class="edge">
<title>8&#45;&gt;11</title>
<path fill="none" stroke="black" d="M180.67,-433.17C165.6,-409.77 137.09,-364.38 116,-324 105.4,-303.7 94.84,-280.03 87.24,-262.2"/>
<polygon fill="black" stroke="black" points="90.5,-260.93 83.39,-253.08 84.05,-263.65 90.5,-260.93"/>
</g>
<!-- 12 -->
<g id="node7" class="node">
<title>12</title>
<ellipse fill="none" stroke="black" cx="307" cy="-378" rx="27" ry="18"/>
<text text-anchor="middle" x="307" y="-373.32" font-family="Times,serif" font-size="14.00">12</text>
</g>
<!-- 8&#45;&gt;12 -->
<g id="edge5" class="edge">
<title>8&#45;&gt;12</title>
<path fill="none" stroke="black" d="M210.68,-437.13C229.12,-426 256.92,-409.22 277.92,-396.55"/>
<polygon fill="black" stroke="black" points="279.56,-399.64 286.32,-391.48 275.95,-393.65 279.56,-399.64"/>
</g>
<!-- 9 -->
<g id="node8" class="node">
<title>9</title>
<ellipse fill="none" stroke="black" cx="124" cy="-18" rx="27" ry="18"/>
<text text-anchor="middle" x="124" y="-13.32" font-family="Times,serif" font-size="14.00">9</text>
</g>
<!-- 8&#45;&gt;9 -->
<g id="edge6" class="edge">
<title>8&#45;&gt;9</title>
<path fill="none" stroke="black" d="M197.08,-432.07C200.45,-421.79 204.29,-408.31 206,-396 208.2,-380.15 207.95,-375.88 206,-360 201.97,-327.26 196.14,-319.96 188,-288 175.76,-239.95 171.63,-228.2 160,-180 148.8,-133.59 136.92,-79.35 130,-47.16"/>
<polygon fill="black" stroke="black" points="133.43,-46.49 127.91,-37.44 126.59,-47.96 133.43,-46.49"/>
</g>
<!-- 10&#45;&gt;19 -->
<g id="edge19" class="edge">
<title>10&#45;&gt;19</title>
<path fill="none" stroke="black" d="M145.26,-288.39C126.04,-241 70.81,-104.82 47.07,-46.28"/>
<polygon fill="black" stroke="black" points="50.33,-45.01 43.33,-37.06 43.84,-47.64 50.33,-45.01"/>
</g>
<!-- 13 -->
<g id="node12" class="node">
<title>13</title>
<ellipse fill="none" stroke="black" cx="263" cy="-306" rx="27" ry="18"/>
<text text-anchor="middle" x="263" y="-301.32" font-family="Times,serif" font-size="14.00">13</text>
</g>
<!-- 12&#45;&gt;13 -->
<g id="edge23" class="edge">
<title>12&#45;&gt;13</title>
<path fill="none" stroke="black" d="M297.02,-361.12C291.67,-352.61 284.96,-341.94 278.92,-332.32"/>
<polygon fill="black" stroke="black" points="282.04,-330.71 273.75,-324.1 276.11,-334.43 282.04,-330.71"/>
</g>
<!-- 14 -->
<g id="node9" class="node">
<title>14</title>
<ellipse fill="none" stroke="black" cx="255" cy="-234" rx="27" ry="18"/>
<text text-anchor="middle" x="255" y="-229.32" font-family="Times,serif" font-size="14.00">14</text>
</g>
<!-- 14&#45;&gt;16 -->
<g id="edge8" class="edge">
<title>14&#45;&gt;16</title>
<path fill="none" stroke="black" d="M242.2,-217.81C234.54,-208.73 224.65,-197 215.99,-186.72"/>
<polygon fill="black" stroke="black" points="218.87,-184.71 209.75,-179.32 213.52,-189.22 218.87,-184.71"/>
</g>
<!-- 15 -->
<g id="node10" class="node">
<title>15</title>
<ellipse fill="none" stroke="black" cx="268" cy="-162" rx="27" ry="18"/>
<text text-anchor="middle" x="268" y="-157.32" font-family="Times,serif" font-size="14.00">15</text>
</g>
<!-- 14&#45;&gt;15 -->
<g id="edge7" class="edge">
<title>14&#45;&gt;15</title>
<path fill="none" stroke="black" d="M258.21,-215.7C259.58,-208.32 261.22,-199.52 262.75,-191.25"/>
<polygon fill="black" stroke="black" points="266.16,-192.06 264.55,-181.59 259.28,-190.79 266.16,-192.06"/>
</g>
<!-- 7 -->
<g id="node11" class="node">
<title>7</title>
<ellipse fill="none" stroke="black" cx="88" cy="-522" rx="27" ry="18"/>
<text text-anchor="middle" x="88" y="-517.33" font-family="Times,serif" font-size="14.00">7</text>
</g>
<!-- 7&#45;&gt;8 -->
<g id="edge10" class="edge">
<title>7&#45;&gt;8</title>
<path fill="none" stroke="black" d="M106.41,-508.49C122.23,-497.73 145.27,-482.08 163.31,-469.82"/>
<polygon fill="black" stroke="black" points="165.19,-472.77 171.49,-464.26 161.26,-466.98 165.19,-472.77"/>
</g>
<!-- 7&#45;&gt;10 -->
<g id="edge12" class="edge">
<title>7&#45;&gt;10</title>
<path fill="none" stroke="black" d="M93.13,-503.85C104.16,-466.98 130.21,-379.86 143.65,-334.91"/>
<polygon fill="black" stroke="black" points="146.99,-335.97 146.5,-325.39 140.28,-333.96 146.99,-335.97"/>
</g>
<!-- 7&#45;&gt;11 -->
<g id="edge13" class="edge">
<title>7&#45;&gt;11</title>
<path fill="none" stroke="black" d="M87.27,-503.54C85.26,-455.76 79.67,-322.51 77.2,-263.61"/>
<polygon fill="black" stroke="black" points="80.7,-263.59 76.79,-253.74 73.71,-263.88 80.7,-263.59"/>
</g>
<!-- 7&#45;&gt;12 -->
<g id="edge14" class="edge">
<title>7&#45;&gt;12</title>
<path fill="none" stroke="black" d="M113.3,-515.22C142.54,-507.7 191.23,-492.55 227,-468 252.21,-450.7 274.87,-423.89 289.58,-404.21"/>
<polygon fill="black" stroke="black" points="292.39,-406.3 295.44,-396.15 286.73,-402.18 292.39,-406.3"/>
</g>
<!-- 7&#45;&gt;9 -->
<g id="edge11" class="edge">
<title>7&#45;&gt;9</title>
<path fill="none" stroke="black" d="M115.28,-520.76C160.06,-519.1 250.25,-510.28 311,-468 342.57,-446.03 347.86,-432.81 359,-396 390.14,-293.15 496.93,-279.81 311,-72 273.47,-30.05 205.45,-20.27 162.61,-18.54"/>
<polygon fill="black" stroke="black" points="162.84,-15.05 152.75,-18.29 162.66,-22.04 162.84,-15.05"/>
</g>
<!-- 7&#45;&gt;13 -->
<g id="edge9" class="edge">
<title>7&#45;&gt;13</title>
<path fill="none" stroke="black" d="M114.67,-518.39C171.43,-511.15 302.37,-485.03 343,-396 349.64,-381.44 350.57,-374.1 343,-360 333.14,-341.65 313.83,-328.58 296.65,-320.01"/>
<polygon fill="black" stroke="black" points="298.25,-316.89 287.7,-315.88 295.32,-323.25 298.25,-316.89"/>
</g>
<!-- 13&#45;&gt;14 -->
<g id="edge20" class="edge">
<title>13&#45;&gt;14</title>
<path fill="none" stroke="black" d="M261.02,-287.7C260.19,-280.41 259.2,-271.73 258.26,-263.54"/>
<polygon fill="black" stroke="black" points="261.74,-263.15 257.13,-253.61 254.78,-263.94 261.74,-263.15"/>
</g>
<!-- 1 -->
<g id="node13" class="node">
<title>1</title>
<ellipse fill="none" stroke="black" cx="27" cy="-810" rx="27" ry="18"/>
<text text-anchor="middle" x="27" y="-805.33" font-family="Times,serif" font-size="14.00">1</text>
</g>
<!-- 1&#45;&gt;19 -->
<g id="edge15" class="edge">
<title>1&#45;&gt;19</title>
<path fill="none" stroke="black" d="M27.2,-791.77C28.35,-690.77 34.21,-175.78 35.67,-47.81"/>
<polygon fill="black" stroke="black" points="39.17,-47.9 35.79,-37.86 32.17,-47.82 39.17,-47.9"/>
</g>
<!-- 4 -->
<g id="node15" class="node">
<title>4</title>
<ellipse fill="none" stroke="black" cx="91" cy="-738" rx="27" ry="18"/>
<text text-anchor="middle" x="91" y="-733.33" font-family="Times,serif" font-size="14.00">4</text>
</g>
<!-- 5 -->
<g id="node16" class="node">
<title>5</title>
<ellipse fill="none" stroke="black" cx="91" cy="-666" rx="27" ry="18"/>
<text text-anchor="middle" x="91" y="-661.33" font-family="Times,serif" font-size="14.00">5</text>
</g>
<!-- 4&#45;&gt;5 -->
<g id="edge17" class="edge">
<title>4&#45;&gt;5</title>
<path fill="none" stroke="black" d="M91,-719.7C91,-712.41 91,-703.73 91,-695.54"/>
<polygon fill="black" stroke="black" points="94.5,-695.62 91,-685.62 87.5,-695.62 94.5,-695.62"/>
</g>
<!-- 6 -->
<g id="node17" class="node">
<title>6</title>
<ellipse fill="none" stroke="black" cx="90" cy="-594" rx="27" ry="18"/>
<text text-anchor="middle" x="90" y="-589.33" font-family="Times,serif" font-size="14.00">6</text>
</g>
<!-- 5&#45;&gt;6 -->
<g id="edge22" class="edge">
<title>5&#45;&gt;6</title>
<path fill="none" stroke="black" d="M90.75,-647.7C90.65,-640.41 90.52,-631.73 90.41,-623.54"/>
<polygon fill="black" stroke="black" points="93.91,-623.57 90.27,-613.62 86.91,-623.67 93.91,-623.57"/>
</g>
<!-- 6&#45;&gt;7 -->
<g id="edge18" class="edge">
<title>6&#45;&gt;7</title>
<path fill="none" stroke="black" d="M89.51,-575.7C89.3,-568.41 89.05,-559.73 88.82,-551.54"/>
<polygon fill="black" stroke="black" points="92.32,-551.51 88.53,-541.62 85.32,-551.71 92.32,-551.51"/>
</g>
<!-- 3 -->
<g id="node18" class="node">
<title>3</title>
<ellipse fill="none" stroke="black" cx="99" cy="-810" rx="27" ry="18"/>
<text text-anchor="middle" x="99" y="-805.33" font-family="Times,serif" font-size="14.00">3</text>
</g>
<!-- 3&#45;&gt;4 -->
<g id="edge21" class="edge">
<title>3&#45;&gt;4</title>
<path fill="none" stroke="black" d="M97.02,-791.7C96.19,-784.41 95.2,-775.73 94.26,-767.54"/>
<polygon fill="black" stroke="black" points="97.74,-767.15 93.13,-757.61 90.78,-767.94 97.74,-767.15"/>
</g>
<!-- 2 -->
<g id="node19" class="node">
<title>2</title>
<ellipse fill="none" stroke="black" cx="94" cy="-882" rx="27" ry="18"/>
<text text-anchor="middle" x="94" y="-877.33" font-family="Times,serif" font-size="14.00">2</text>
</g>
<!-- 2&#45;&gt;3 -->
<g id="edge24" class="edge">
<title>2&#45;&gt;3</title>
<path fill="none" stroke="black" d="M95.24,-863.7C95.76,-856.41 96.38,-847.73 96.96,-839.54"/>
<polygon fill="black" stroke="black" points="100.45,-839.84 97.67,-829.61 93.47,-839.34 100.45,-839.84"/>
</g>
<!-- 0 -->
<g id="node20" class="node">
<title>0</title>
<ellipse fill="none" stroke="black" cx="62" cy="-954" rx="27" ry="18"/>
<text text-anchor="middle" x="62" y="-949.33" font-family="Times,serif" font-size="14.00">0</text>
</g>
<!-- 0&#45;&gt;1 -->
<g id="edge25" class="edge">
<title>0&#45;&gt;1</title>
<path fill="none" stroke="black" d="M57.78,-935.87C51.87,-911.88 41.05,-867.99 33.94,-839.16"/>
<polygon fill="black" stroke="black" points="37.39,-838.53 31.6,-829.66 30.59,-840.21 37.39,-838.53"/>
</g>
<!-- 0&#45;&gt;2 -->
<g id="edge26" class="edge">
<title>0&#45;&gt;2</title>
<path fill="none" stroke="black" d="M69.58,-936.41C73.21,-928.48 77.64,-918.78 81.73,-909.84"/>
<polygon fill="black" stroke="black" points="84.87,-911.4 85.84,-900.85 78.5,-908.49 84.87,-911.4"/>
</g>
</g>
</svg>
