<?xml version="1.0" encoding="UTF-8" standalone="no"?>
<!DOCTYPE svg PUBLIC "-//W3C//DTD SVG 1.1//EN"
 "http://www.w3.org/Graphics/SVG/1.1/DTD/svg11.dtd">
<!-- Generated by graphviz version 12.0.0 (20240704.0754)
 -->
<!-- Pages: 1 -->
<svg width="749pt" height="620pt"
 viewBox="0.00 0.00 749.29 620.00" xmlns="http://www.w3.org/2000/svg" xmlns:xlink="http://www.w3.org/1999/xlink">
<g id="graph0" class="graph" transform="scale(1 1) rotate(0) translate(4 616)">
<polygon fill="white" stroke="none" points="-4,4 -4,-616 745.29,-616 745.29,4 -4,4"/>
<!-- service&#45;1 replicas: 2 -->
<g id="node1" class="node">
<title>service&#45;1 replicas: 2</title>
<ellipse fill="none" stroke="black" cx="85.64" cy="-162" rx="85.64" ry="18"/>
<text text-anchor="middle" x="85.64" y="-156.95" font-family="Times,serif" font-size="14.00">service&#45;1 replicas: 2</text>
</g>
<!-- service&#45;13 replicas: 3 -->
<g id="node2" class="node">
<title>service&#45;13 replicas: 3</title>
<ellipse fill="none" stroke="black" cx="121.64" cy="-18" rx="90.25" ry="18"/>
<text text-anchor="middle" x="121.64" y="-12.95" font-family="Times,serif" font-size="14.00">service&#45;13 replicas: 3</text>
</g>
<!-- service&#45;1 replicas: 2&#45;&gt;service&#45;13 replicas: 3 -->
<g id="edge1" class="edge">
<title>service&#45;1 replicas: 2&#45;&gt;service&#45;13 replicas: 3</title>
<path fill="none" stroke="black" d="M90.06,-143.59C96.16,-119.5 107.25,-75.75 114.54,-47.03"/>
<polygon fill="black" stroke="black" points="117.87,-48.13 116.93,-37.58 111.08,-46.41 117.87,-48.13"/>
</g>
<!-- service&#45;10 replicas: 3 -->
<g id="node3" class="node">
<title>service&#45;10 replicas: 3</title>
<ellipse fill="none" stroke="black" cx="274.64" cy="-234" rx="90.25" ry="18"/>
<text text-anchor="middle" x="274.64" y="-228.95" font-family="Times,serif" font-size="14.00">service&#45;10 replicas: 3</text>
</g>
<!-- service&#45;11 replicas: 1 -->
<g id="node4" class="node">
<title>service&#45;11 replicas: 1</title>
<ellipse fill="none" stroke="black" cx="382.64" cy="-162" rx="90.25" ry="18"/>
<text text-anchor="middle" x="382.64" y="-156.95" font-family="Times,serif" font-size="14.00">service&#45;11 replicas: 1</text>
</g>
<!-- service&#45;10 replicas: 3&#45;&gt;service&#45;11 replicas: 1 -->
<g id="edge2" class="edge">
<title>service&#45;10 replicas: 3&#45;&gt;service&#45;11 replicas: 1</title>
<path fill="none" stroke="black" d="M300.24,-216.41C314.39,-207.24 332.18,-195.7 347.61,-185.71"/>
<polygon fill="black" stroke="black" points="349.1,-188.91 355.59,-180.54 345.29,-183.04 349.1,-188.91"/>
</g>
<!-- service&#45;12 replicas: 1 -->
<g id="node5" class="node">
<title>service&#45;12 replicas: 1</title>
<ellipse fill="none" stroke="black" cx="337.64" cy="-90" rx="90.25" ry="18"/>
<text text-anchor="middle" x="337.64" y="-84.95" font-family="Times,serif" font-size="14.00">service&#45;12 replicas: 1</text>
</g>
<!-- service&#45;10 replicas: 3&#45;&gt;service&#45;12 replicas: 1 -->
<g id="edge3" class="edge">
<title>service&#45;10 replicas: 3&#45;&gt;service&#45;12 replicas: 1</title>
<path fill="none" stroke="black" d="M273.02,-215.67C272.02,-197.03 272.62,-166.96 283.64,-144 288.8,-133.25 297.09,-123.47 305.64,-115.31"/>
<polygon fill="black" stroke="black" points="307.9,-117.99 313.04,-108.72 303.24,-112.76 307.9,-117.99"/>
</g>
<!-- service&#45;11 replicas: 1&#45;&gt;service&#45;12 replicas: 1 -->
<g id="edge5" class="edge">
<title>service&#45;11 replicas: 1&#45;&gt;service&#45;12 replicas: 1</title>
<path fill="none" stroke="black" d="M371.52,-143.7C366.45,-135.81 360.34,-126.3 354.71,-117.55"/>
<polygon fill="black" stroke="black" points="357.81,-115.9 349.46,-109.38 351.92,-119.68 357.81,-115.9"/>
</g>
<!-- service&#45;12 replicas: 1&#45;&gt;service&#45;13 replicas: 3 -->
<g id="edge25" class="edge">
<title>service&#45;12 replicas: 1&#45;&gt;service&#45;13 replicas: 3</title>
<path fill="none" stroke="black" d="M291.57,-74.07C258.45,-63.33 213.58,-48.8 178.27,-37.35"/>
<polygon fill="black" stroke="black" points="179.68,-34.13 169.08,-34.37 177.52,-40.79 179.68,-34.13"/>
</g>
<!-- service&#45;3 replicas: 1 -->
<g id="node6" class="node">
<title>service&#45;3 replicas: 1</title>
<ellipse fill="none" stroke="black" cx="261.64" cy="-378" rx="85.64" ry="18"/>
<text text-anchor="middle" x="261.64" y="-372.95" font-family="Times,serif" font-size="14.00">service&#45;3 replicas: 1</text>
</g>
<!-- service&#45;3 replicas: 1&#45;&gt;service&#45;13 replicas: 3 -->
<g id="edge4" class="edge">
<title>service&#45;3 replicas: 1&#45;&gt;service&#45;13 replicas: 3</title>
<path fill="none" stroke="black" d="M211.29,-363.03C191.96,-354.93 171.86,-342.56 160.64,-324 119,-255.12 198.25,-222.54 180.64,-144 172.61,-108.14 153.07,-70.46 138.67,-45.96"/>
<polygon fill="black" stroke="black" points="141.8,-44.37 133.65,-37.61 135.81,-47.98 141.8,-44.37"/>
</g>
<!-- service&#45;5 replicas: 3 -->
<g id="node7" class="node">
<title>service&#45;5 replicas: 3</title>
<ellipse fill="none" stroke="black" cx="408.64" cy="-522" rx="85.64" ry="18"/>
<text text-anchor="middle" x="408.64" y="-516.95" font-family="Times,serif" font-size="14.00">service&#45;5 replicas: 3</text>
</g>
<!-- service&#45;7 replicas: 2 -->
<g id="node8" class="node">
<title>service&#45;7 replicas: 2</title>
<ellipse fill="none" stroke="black" cx="427.64" cy="-450" rx="85.64" ry="18"/>
<text text-anchor="middle" x="427.64" y="-444.95" font-family="Times,serif" font-size="14.00">service&#45;7 replicas: 2</text>
</g>
<!-- service&#45;5 replicas: 3&#45;&gt;service&#45;7 replicas: 2 -->
<g id="edge6" class="edge">
<title>service&#45;5 replicas: 3&#45;&gt;service&#45;7 replicas: 2</title>
<path fill="none" stroke="black" d="M413.34,-503.7C415.36,-496.24 417.78,-487.32 420.05,-478.97"/>
<polygon fill="black" stroke="black" points="423.36,-480.13 422.6,-469.57 416.61,-478.3 423.36,-480.13"/>
</g>
<!-- service&#45;8 replicas: 3 -->
<g id="node10" class="node">
<title>service&#45;8 replicas: 3</title>
<ellipse fill="none" stroke="black" cx="548.64" cy="-378" rx="85.64" ry="18"/>
<text text-anchor="middle" x="548.64" y="-372.95" font-family="Times,serif" font-size="14.00">service&#45;8 replicas: 3</text>
</g>
<!-- service&#45;7 replicas: 2&#45;&gt;service&#45;8 replicas: 3 -->
<g id="edge24" class="edge">
<title>service&#45;7 replicas: 2&#45;&gt;service&#45;8 replicas: 3</title>
<path fill="none" stroke="black" d="M456.01,-432.59C472.4,-423.11 493.21,-411.07 510.96,-400.8"/>
<polygon fill="black" stroke="black" points="512.24,-404.1 519.14,-396.07 508.73,-398.05 512.24,-404.1"/>
</g>
<!-- service&#45;0 replicas: 1 -->
<g id="node9" class="node">
<title>service&#45;0 replicas: 1</title>
<ellipse fill="none" stroke="black" cx="152.64" cy="-594" rx="85.64" ry="18"/>
<text text-anchor="middle" x="152.64" y="-588.95" font-family="Times,serif" font-size="14.00">service&#45;0 replicas: 1</text>
</g>
<!-- service&#45;0 replicas: 1&#45;&gt;service&#45;1 replicas: 2 -->
<g id="edge15" class="edge">
<title>service&#45;0 replicas: 1&#45;&gt;service&#45;1 replicas: 2</title>
<path fill="none" stroke="black" d="M149.93,-575.61C139.63,-509.49 102.83,-273.29 90.05,-191.29"/>
<polygon fill="black" stroke="black" points="93.54,-190.97 88.55,-181.63 86.63,-192.05 93.54,-190.97"/>
</g>
<!-- service&#45;0 replicas: 1&#45;&gt;service&#45;3 replicas: 1 -->
<g id="edge8" class="edge">
<title>service&#45;0 replicas: 1&#45;&gt;service&#45;3 replicas: 1</title>
<path fill="none" stroke="black" d="M158.04,-575.82C167.92,-545.56 190.61,-481.3 219.64,-432 225.24,-422.49 232.39,-412.82 239.2,-404.39"/>
<polygon fill="black" stroke="black" points="241.68,-406.87 245.39,-396.95 236.3,-402.39 241.68,-406.87"/>
</g>
<!-- service&#45;0 replicas: 1&#45;&gt;service&#45;5 replicas: 3 -->
<g id="edge10" class="edge">
<title>service&#45;0 replicas: 1&#45;&gt;service&#45;5 replicas: 3</title>
<path fill="none" stroke="black" d="M203.53,-579.09C244.79,-567.8 303.11,-551.86 347.02,-539.85"/>
<polygon fill="black" stroke="black" points="347.67,-543.3 356.4,-537.29 345.83,-536.55 347.67,-543.3"/>
</g>
<!-- service&#45;0 replicas: 1&#45;&gt;service&#45;7 replicas: 2 -->
<g id="edge9" class="edge">
<title>service&#45;0 replicas: 1&#45;&gt;service&#45;7 replicas: 2</title>
<path fill="none" stroke="black" d="M238.25,-592.38C330.94,-589.68 470.08,-579.01 503.64,-540 514.08,-527.87 511.04,-518.19 503.64,-504 496.89,-491.06 485.38,-480.63 473.32,-472.57"/>
<polygon fill="black" stroke="black" points="475.26,-469.65 464.91,-467.39 471.6,-475.61 475.26,-469.65"/>
</g>
<!-- service&#45;0 replicas: 1&#45;&gt;service&#45;8 replicas: 3 -->
<g id="edge7" class="edge">
<title>service&#45;0 replicas: 1&#45;&gt;service&#45;8 replicas: 3</title>
<path fill="none" stroke="black" d="M200.95,-578.77C223.72,-570.26 250.11,-557.63 269.64,-540 310.9,-502.78 288.13,-465.26 332.64,-432 354.48,-415.68 417.95,-401.24 470.47,-391.57"/>
<polygon fill="black" stroke="black" points="470.79,-395.07 480,-389.85 469.54,-388.18 470.79,-395.07"/>
</g>
<!-- service&#45;6 replicas: 3 -->
<g id="node11" class="node">
<title>service&#45;6 replicas: 3</title>
<ellipse fill="none" stroke="black" cx="255.64" cy="-306" rx="85.64" ry="18"/>
<text text-anchor="middle" x="255.64" y="-300.95" font-family="Times,serif" font-size="14.00">service&#45;6 replicas: 3</text>
</g>
<!-- service&#45;0 replicas: 1&#45;&gt;service&#45;6 replicas: 3 -->
<g id="edge11" class="edge">
<title>service&#45;0 replicas: 1&#45;&gt;service&#45;6 replicas: 3</title>
<path fill="none" stroke="black" d="M165.61,-576.04C173.35,-565.75 183.28,-552.27 191.64,-540 223.58,-493.13 215.61,-467.76 259.64,-432 295.34,-403.01 330.39,-433.75 356.64,-396 365.78,-382.86 364.92,-373.69 356.64,-360 347.44,-344.78 332.26,-333.71 316.43,-325.76"/>
<polygon fill="black" stroke="black" points="317.92,-322.59 307.37,-321.61 315,-328.96 317.92,-322.59"/>
</g>
<!-- service&#45;2 replicas: 2 -->
<g id="node12" class="node">
<title>service&#45;2 replicas: 2</title>
<ellipse fill="none" stroke="black" cx="617.64" cy="-234" rx="85.64" ry="18"/>
<text text-anchor="middle" x="617.64" y="-228.95" font-family="Times,serif" font-size="14.00">service&#45;2 replicas: 2</text>
</g>
<!-- service&#45;0 replicas: 1&#45;&gt;service&#45;2 replicas: 2 -->
<g id="edge12" class="edge">
<title>service&#45;0 replicas: 1&#45;&gt;service&#45;2 replicas: 2</title>
<path fill="none" stroke="black" d="M236.98,-590.65C331.86,-586.36 478.28,-574.23 520.64,-540 560.46,-507.83 525.45,-469.17 560.64,-432 588.29,-402.8 621.58,-429.62 643.64,-396 670.42,-355.2 649.36,-296.37 632.73,-262.27"/>
<polygon fill="black" stroke="black" points="635.91,-260.79 628.25,-253.47 629.67,-263.97 635.91,-260.79"/>
</g>
<!-- service&#45;4 replicas: 1 -->
<g id="node13" class="node">
<title>service&#45;4 replicas: 1</title>
<ellipse fill="none" stroke="black" cx="655.64" cy="-450" rx="85.64" ry="18"/>
<text text-anchor="middle" x="655.64" y="-444.95" font-family="Times,serif" font-size="14.00">service&#45;4 replicas: 1</text>
</g>
<!-- service&#45;0 replicas: 1&#45;&gt;service&#45;4 replicas: 1 -->
<g id="edge13" class="edge">
<title>service&#45;0 replicas: 1&#45;&gt;service&#45;4 replicas: 1</title>
<path fill="none" stroke="black" d="M237.82,-591.9C351.47,-588.95 545.18,-578.26 603.64,-540 625.25,-525.86 639.02,-499.39 646.92,-478.98"/>
<polygon fill="black" stroke="black" points="650.13,-480.4 650.21,-469.8 643.54,-478.03 650.13,-480.4"/>
</g>
<!-- service&#45;9 replicas: 3 -->
<g id="node14" class="node">
<title>service&#45;9 replicas: 3</title>
<ellipse fill="none" stroke="black" cx="496.64" cy="-306" rx="85.64" ry="18"/>
<text text-anchor="middle" x="496.64" y="-300.95" font-family="Times,serif" font-size="14.00">service&#45;9 replicas: 3</text>
</g>
<!-- service&#45;0 replicas: 1&#45;&gt;service&#45;9 replicas: 3 -->
<g id="edge14" class="edge">
<title>service&#45;0 replicas: 1&#45;&gt;service&#45;9 replicas: 3</title>
<path fill="none" stroke="black" d="M174.2,-576.28C186.55,-566.29 202.05,-553.04 214.64,-540 257.27,-495.86 252.86,-470.5 300.64,-432 328.81,-409.3 342.66,-414.67 373.64,-396 406.73,-376.07 442.24,-349.79 466.56,-330.96"/>
<polygon fill="black" stroke="black" points="468.7,-333.74 474.43,-324.82 464.39,-328.22 468.7,-333.74"/>
</g>
<!-- service&#45;8 replicas: 3&#45;&gt;service&#45;10 replicas: 3 -->
<g id="edge21" class="edge">
<title>service&#45;8 replicas: 3&#45;&gt;service&#45;10 replicas: 3</title>
<path fill="none" stroke="black" d="M567.33,-360.14C586.22,-341.08 610.16,-309.87 591.64,-288 584.08,-279.07 450.31,-259.09 358.98,-246.37"/>
<polygon fill="black" stroke="black" points="359.67,-242.93 349.29,-245.02 358.71,-249.86 359.67,-242.93"/>
</g>
<!-- service&#45;8 replicas: 3&#45;&gt;service&#45;11 replicas: 1 -->
<g id="edge18" class="edge">
<title>service&#45;8 replicas: 3&#45;&gt;service&#45;11 replicas: 1</title>
<path fill="none" stroke="black" d="M575.96,-360.66C588.4,-351.59 601.84,-339.08 608.64,-324 615.22,-309.41 618.55,-300.56 608.64,-288 566.2,-234.16 517.1,-287.82 458.64,-252 445.09,-243.7 419.72,-212.3 402.04,-189.14"/>
<polygon fill="black" stroke="black" points="404.95,-187.19 396.13,-181.33 399.37,-191.42 404.95,-187.19"/>
</g>
<!-- service&#45;8 replicas: 3&#45;&gt;service&#45;12 replicas: 1 -->
<g id="edge19" class="edge">
<title>service&#45;8 replicas: 3&#45;&gt;service&#45;12 replicas: 1</title>
<path fill="none" stroke="black" d="M585.49,-361.29C600.82,-352.68 617.03,-340.38 625.64,-324 633.09,-309.84 634.9,-301.05 625.64,-288 597.57,-248.46 557.39,-285.83 522.64,-252 485.86,-216.18 518.13,-180.12 481.64,-144 463.34,-125.88 438.32,-113.89 414.27,-105.98"/>
<polygon fill="black" stroke="black" points="415.34,-102.65 404.76,-103.07 413.29,-109.34 415.34,-102.65"/>
</g>
<!-- service&#45;8 replicas: 3&#45;&gt;service&#45;9 replicas: 3 -->
<g id="edge20" class="edge">
<title>service&#45;8 replicas: 3&#45;&gt;service&#45;9 replicas: 3</title>
<path fill="none" stroke="black" d="M536.05,-360.05C530.14,-352.09 522.95,-342.41 516.34,-333.51"/>
<polygon fill="black" stroke="black" points="519.15,-331.43 510.38,-325.49 513.53,-335.6 519.15,-331.43"/>
</g>
<!-- service&#45;6 replicas: 3&#45;&gt;service&#45;10 replicas: 3 -->
<g id="edge17" class="edge">
<title>service&#45;6 replicas: 3&#45;&gt;service&#45;10 replicas: 3</title>
<path fill="none" stroke="black" d="M260.34,-287.7C262.36,-280.24 264.78,-271.32 267.05,-262.97"/>
<polygon fill="black" stroke="black" points="270.36,-264.13 269.6,-253.57 263.61,-262.3 270.36,-264.13"/>
</g>
<!-- service&#45;2 replicas: 2&#45;&gt;service&#45;13 replicas: 3 -->
<g id="edge26" class="edge">
<title>service&#45;2 replicas: 2&#45;&gt;service&#45;13 replicas: 3</title>
<path fill="none" stroke="black" d="M608.05,-215.71C596.81,-196.56 576.77,-165.52 553.64,-144 508.95,-102.4 493.8,-93.46 436.64,-72 365.99,-45.47 281.45,-32.17 217.74,-25.53"/>
<polygon fill="black" stroke="black" points="218.3,-22.07 208.01,-24.56 217.61,-29.04 218.3,-22.07"/>
</g>
<!-- service&#45;4 replicas: 1&#45;&gt;service&#45;13 replicas: 3 -->
<g id="edge16" class="edge">
<title>service&#45;4 replicas: 1&#45;&gt;service&#45;13 replicas: 3</title>
<path fill="none" stroke="black" d="M667.77,-431.82C694.48,-391.7 752.93,-289.61 712.64,-216 655.64,-111.85 598.9,-113.44 487.64,-72 401.51,-39.92 297.27,-27.14 222.09,-22.11"/>
<polygon fill="black" stroke="black" points="222.46,-18.63 212.26,-21.5 222.02,-25.62 222.46,-18.63"/>
</g>
<!-- service&#45;9 replicas: 3&#45;&gt;service&#45;10 replicas: 3 -->
<g id="edge23" class="edge">
<title>service&#45;9 replicas: 3&#45;&gt;service&#45;10 replicas: 3</title>
<path fill="none" stroke="black" d="M450.37,-290.41C416.02,-279.58 368.96,-264.74 332.18,-253.14"/>
<polygon fill="black" stroke="black" points="333.65,-249.94 323.06,-250.27 331.54,-256.61 333.65,-249.94"/>
</g>
<!-- service&#45;9 replicas: 3&#45;&gt;service&#45;11 replicas: 1 -->
<g id="edge22" class="edge">
<title>service&#45;9 replicas: 3&#45;&gt;service&#45;11 replicas: 1</title>
<path fill="none" stroke="black" d="M464.92,-288.83C449.59,-279.72 431.9,-267.13 419.64,-252 405.16,-234.13 395.56,-209.79 389.78,-191.08"/>
<polygon fill="black" stroke="black" points="393.21,-190.36 387.08,-181.72 386.49,-192.3 393.21,-190.36"/>
</g>
</g>
</svg>
